<svg width="10" height="12" viewBox="0 0 10 12" fill="none" xmlns="http://www.w3.org/2000/svg">
<path d="M0.666994 1.68295L0.666994 10.3163C0.666994 10.9746 1.39199 11.3746 1.95033 11.0163L8.73366 6.69961C8.85242 6.62445 8.95024 6.52048 9.01803 6.39737C9.08581 6.27425 9.12136 6.13599 9.12136 5.99545C9.12136 5.8549 9.08581 5.71664 9.01803 5.59353C8.95024 5.47041 8.85242 5.36644 8.73366 5.29128L1.95033 0.982946C1.82463 0.90165 1.67933 0.855785 1.52974 0.850191C1.38015 0.844596 1.23183 0.879479 1.10041 0.95116C0.968999 1.02284 0.859367 1.12866 0.783084 1.25746C0.7068 1.38626 0.666693 1.53325 0.666994 1.68295Z" fill="white"/>
</svg>
