<svg width="12" height="10" viewBox="0 0 12 10" fill="none" xmlns="http://www.w3.org/2000/svg">
<path d="M10.3171 9.33301L1.68372 9.33301C1.02539 9.33301 0.625387 8.60801 0.983721 8.04967L5.30039 1.26634C5.37555 1.14758 5.47952 1.04976 5.60263 0.981974C5.72575 0.91419 5.86401 0.878645 6.00455 0.878645C6.1451 0.878645 6.28336 0.91419 6.40647 0.981974C6.52959 1.04976 6.63356 1.14758 6.70872 1.26634L11.0171 8.04967C11.0984 8.17537 11.1442 8.32067 11.1498 8.47026C11.1554 8.61985 11.1205 8.76817 11.0488 8.89959C10.9772 9.031 10.8713 9.14063 10.7425 9.21692C10.6137 9.2932 10.4667 9.33331 10.3171 9.33301Z" fill="white"/>
</svg>
