<svg width="146" height="16" viewBox="0 0 146 16" fill="none" xmlns="http://www.w3.org/2000/svg">
<path fill-rule="evenodd" clip-rule="evenodd" d="M74.9191 0.970073C72.1539 0.951659 69.9154 1.66833 68.1097 3.06473C66.2851 4.4619 65.3825 6.16001 65.3825 8.27349C65.3825 10.0097 66.2851 11.5954 67.7522 12.841C69.5205 14.3507 71.9655 15.03 74.975 15.03C76.2351 15.03 77.5337 14.8222 78.5117 14.5582C79.9601 14.1809 81.8785 13.3125 82.4612 12.0292L82.4239 10.1235C82.3864 8.80234 82.4805 8.7455 83.8348 8.72692V8.27349H78.7373V8.72692C79.2642 8.72692 79.6213 8.70808 79.9409 8.91547C80.2422 9.14204 80.1665 10.1609 80.1665 10.5574L80.1483 11.7086C79.7154 12.5391 78.7181 12.9918 78.0039 13.275C77.3455 13.5393 76.1411 13.8222 75.0131 13.841C73.1318 13.8599 71.6647 13.3314 70.442 12.5578C69.2005 11.7459 67.9968 10.0669 67.9968 7.97196C67.9968 5.95255 69.2761 4.29137 70.781 3.25328C71.759 2.57426 73.414 1.98905 75.0504 2.00823C76.4614 2.02742 77.7784 2.36651 78.7373 2.91433C79.8286 3.51816 80.9948 4.745 81.4268 5.65059L81.8594 5.48074L81.1636 2.51778C80.2987 1.98914 79.226 1.61139 78.2104 1.36663C77.1009 1.10193 75.9722 0.98926 74.9191 0.970073ZM8.79447 1.28321C6.87139 1.29018 4.95575 1.31855 1.48544 1.30415L1.4668 1.7385C1.93698 1.7385 2.10655 1.71942 2.38854 1.94576C2.652 2.17286 2.68944 2.41748 2.68944 3.24842V12.1369C2.68944 12.8918 2.74584 13.6657 2.57646 13.8732C2.33211 14.1564 2.16267 14.2131 1.56076 14.1942V14.6469H8.70871C10.665 14.6469 13.8813 14.5905 15.1978 13.5526C15.7059 13.2696 16.6272 12.4015 16.6084 10.9293C16.6084 9.13648 15.8374 8.58889 15.1415 8.19268C14.5207 7.85317 13.5427 7.58913 12.3953 7.40031C13.3168 7.07968 13.5237 6.98483 14.1068 6.532C14.7087 6.09773 15.1042 5.22992 15.1042 4.36177C15.1042 2.09684 12.6585 1.3802 10.7778 1.28582C10.0771 1.28104 9.43549 1.28089 8.79447 1.28321ZM144.496 1.30415L139.831 1.32286V1.71942C140.602 1.75701 140.829 1.77619 140.979 2.32324C141.053 2.53116 141.035 3.00233 141.035 3.66293V12.2877C141.035 13.854 141.167 14.2129 139.926 14.2129V14.6469H144.533L144.515 14.2129C143.255 14.2129 143.311 13.7219 143.311 12.2877V3.66293C143.311 2.11538 143.273 1.71942 144.496 1.71942V1.30415ZM22.383 1.32323V1.8137C22.8347 1.8137 23.023 1.83277 23.2861 1.98392C23.5873 2.17266 23.9635 3.04049 24.4148 3.92743L30.0578 14.6469H31.9576C33.1238 12.3257 35.0045 8.55135 36.4529 5.70147C37.4309 3.81456 38.1461 2.30481 38.428 1.94651C38.5974 1.73858 39.0677 1.8137 39.3684 1.8137V1.32323L35.4186 1.34194V1.8137C35.4562 1.8137 36.5659 1.66311 36.4529 2.37973C36.3589 2.94596 31.9576 11.2124 31.4121 12.5335L27.029 4.24879C26.7093 3.6442 26.446 3.19146 26.3146 2.83315C25.957 1.9838 26.5029 1.8137 27.2553 1.8137V1.32323H22.383ZM122.781 1.33596C122.499 1.33373 122.2 1.33477 121.883 1.33634C121.459 1.33843 121.002 1.34196 120.513 1.34196H114.495V1.75722C115.322 1.75722 115.661 2.00272 115.661 2.96485V3.96523V11.1744V13.4767C115.661 14.1936 115.134 14.1745 114.495 14.1557V14.6469H119.197V14.1557C118.426 14.1557 117.974 14.0809 117.955 13.156V9.23049C118.463 9.268 118.915 9.23049 119.705 9.23049C119.987 9.23049 121.491 9.24943 121.943 9.23049C123.654 9.23049 124.445 11.2686 125.367 12.703C126.138 13.9108 125.799 14.6469 130.728 14.6469C130.728 14.5336 130.69 14.288 130.69 14.1748C128.583 14.1936 128.188 12.929 127.285 11.3061C126.439 9.83424 126.212 8.87181 124.031 8.6263C127.341 8.00382 128.207 6.49403 128.207 4.77631C128.188 3.04078 126.909 1.96421 124.821 1.49235C124.303 1.37582 123.624 1.34264 122.781 1.33596ZM47.0615 1.34157V1.75683C47.7198 1.75683 47.908 1.81349 48.0962 2.07819C48.2841 2.32295 48.2842 2.73819 48.2842 3.47475V9.8717V13.1747C48.2842 14.043 47.9457 14.1937 47.1368 14.2125V14.6469H58.968L60.341 11.8915L59.9088 11.7213C59.4571 12.4574 58.4226 13.1747 56.786 13.1747H53.3627H50.5602V2.88927C50.5602 2.26626 50.6731 2.0782 50.8234 1.92705C51.0492 1.73831 51.1621 1.77602 51.7452 1.75683V1.34157H47.0615ZM97.1896 1.34195L91.7159 11.7973C91.2272 12.7411 91.0391 13.0618 90.8135 13.4957C90.5497 13.9486 90.3989 14.2509 89.4958 14.2698V14.6469H93.578L93.597 14.2133C92.8629 14.2322 92.5441 14.175 92.525 13.5144C92.525 13.3067 92.713 12.9678 92.9952 12.4583L93.7659 11.0992H101.666L102.607 12.703C103.228 13.7412 103.058 14.1188 101.948 14.1755V14.6469H106.839V14.1373C105.673 14.1373 105.729 13.8172 104.694 11.911L98.9205 1.34195H97.1896ZM120.417 2.30193C121.863 2.29321 123.328 2.36583 124.257 2.81371C125.047 3.1912 125.705 3.62532 125.705 4.94653C125.705 6.81486 124.557 7.30565 123.692 7.62629C122.169 8.0225 119.667 7.89025 117.955 7.90912V2.34158C118.689 2.34158 119.549 2.30716 120.417 2.30193ZM8.96711 2.41117C10.1196 2.40963 11.248 2.4556 11.8688 2.8515C12.6774 3.38014 12.8655 3.75777 12.8655 4.55034C12.8655 5.04062 12.4708 5.89076 12.0571 6.2114C11.0788 7.00412 9.32951 7.04155 8.03157 7.04155H4.92779V2.41753H7.82425C8.19579 2.41753 8.58295 2.4117 8.96711 2.41117ZM97.6408 3.34271L100.971 9.60796H94.4811L97.6408 3.34271ZM8.86643 8.22523C10.7787 8.22002 12.1363 8.29398 13.0911 9.00413C13.5989 9.38147 14.0881 10.042 14.0881 10.835C14.0881 13.0241 11.361 13.1751 8.67105 13.1751H4.92779V8.23047C5.94342 8.23047 6.99701 8.24934 8.01293 8.23047C8.30918 8.22809 8.59325 8.22596 8.86643 8.22523Z" fill="white"/>
</svg>
