<svg width="20" height="20" viewBox="0 0 20 20" fill="none" xmlns="http://www.w3.org/2000/svg">
<path d="M11.1721 1.33332L12.214 0.0869922C12.0134 0.0316797 11.8047 0 11.5907 0H8.39807C8.23572 0 8.07674 0.0206641 7.92139 0.0526563L8.83307 1.33332H11.1721Z" fill="#202421"/>
<path d="M8.82764 2L8.07764 3L8.82764 4H11.161L11.911 3L11.161 2H8.82764Z" fill="#202421"/>
<path d="M12.4943 2.66648H13.9869C14.0266 2.12547 13.8919 1.57848 13.5863 1.1198L13.5319 1.03879C13.3496 0.765469 13.1139 0.541797 12.8459 0.370117L11.7529 1.67781L12.4943 2.66648Z" fill="#202421"/>
<path d="M7.49423 2.66637L8.24822 1.66102L7.27193 0.290039C6.94927 0.468047 6.66794 0.721367 6.45658 1.03836L6.4229 1.08937C6.10857 1.5607 5.96759 2.1177 6.00556 2.66637H7.49423Z" fill="#202421"/>
<path d="M13.2 4.66734L13.74 3.58734C13.7823 3.5027 13.8177 3.41633 13.847 3.33301H12.4943L11.5943 4.53301C11.5317 4.61699 11.4327 4.66633 11.3277 4.66633H8.66098C8.55598 4.66633 8.4573 4.61699 8.39465 4.53301L7.49465 3.33301H6.145C6.17934 3.43035 6.21867 3.52668 6.26535 3.62035L6.79102 4.67203C3.91066 5.93668 2 8.83602 2 11.9997C2 16.4107 5.58898 19.9997 10 19.9997C14.411 19.9997 18 16.4107 18 11.9997C18 8.83102 16.0854 5.93004 13.2 4.66734ZM10 17.9997C6.69168 17.9997 4 15.308 4 11.9997C4 8.69137 6.69168 5.99969 10 5.99969C13.3083 5.99969 16 8.69137 16 11.9997C16 15.308 13.3083 17.9997 10 17.9997Z" fill="#202421"/>
</svg>
