<svg width="140" height="77" viewBox="0 0 140 77" fill="none" xmlns="http://www.w3.org/2000/svg">
<g clip-path="url(#clip0_111_1754)">
<path d="M89.4451 1.12227H85.2543C85.2543 8.77563 83.3358 12.2464 79.3436 14.6521V1.12012H72.8954V17.4665C71.6916 17.8911 70.3984 18.3313 69.0121 18.8094C68.2344 19.0758 67.4813 19.3412 66.7496 19.6036V1.12012H60.2981V22.3036C53.7748 25.6331 50.2428 30.2408 50.2428 40.6379H54.4329C54.4329 33.5389 56.1612 30.0233 60.2984 27.406V40.643H66.7498V24.4173C67.8441 24.0069 69.0153 23.5943 70.278 23.1582C71.1692 22.8509 72.0422 22.5517 72.8956 22.2558V40.643H79.3439V19.6954C85.49 16.7088 89.4453 12.2344 89.4453 1.12227M65.0234 71.1327H57.3946L57.3914 65.4593H65.0474C67.315 65.4593 68.2985 66.3509 68.2985 68.3768C68.2985 69.8932 67.6823 71.1327 65.0231 71.1327M64.3442 56.8114C66.7912 56.8114 67.5443 57.7049 67.5443 59.1918C67.5443 60.6764 66.8919 61.7373 64.4366 61.7373L57.3914 61.7397V56.8116H64.3442V56.8114ZM70.1571 63.414C71.5152 62.347 72.2915 60.7917 72.2915 58.9108C72.2915 57.0351 71.5354 52.6747 64.5602 52.6747H53.0268V75.2529H65.2922C70.2311 75.2529 73.0662 72.7441 73.0662 68.3838C73.0662 66.2567 72.0582 64.5555 70.1571 63.414ZM121.664 52.6745V57.2663H128.72V75.2526H133.12V57.2663H140V52.6745H121.664ZM107.846 71.4112C103.576 71.4112 100.227 68.1098 100.227 63.8945C100.227 59.6792 103.576 56.38 107.846 56.38C112.121 56.38 115.465 59.6792 115.465 63.8948C115.465 68.1104 112.121 71.4112 107.846 71.4112M107.846 52.031C101.104 52.031 95.8191 57.2419 95.8191 63.8956C95.8191 70.5504 101.104 75.7592 107.846 75.7592C114.592 75.7592 119.876 70.5504 119.876 63.8956C119.876 57.2419 114.592 52.031 107.846 52.031ZM79.3095 52.6745V75.2475H94.4555V70.6798H83.7024V52.6745H79.3095ZM42.763 52.6753V64.4591C42.763 67.885 42.4106 71.5159 36.831 71.5159C31.2496 71.5159 30.8529 67.9616 30.8529 64.4591V52.6753H26.48V64.7389C26.48 70.1263 27.9763 75.8803 36.8313 75.8803C45.6839 75.8803 47.1719 70.0436 47.1719 64.7389V52.6753H42.763ZM15.7021 52.6745V61.0815H4.39611V52.6694H0V75.2556H4.39611V65.7021H15.7021V75.2556H20.0678V52.6745H15.7021Z" fill="white"/>
</g>
<defs>
<clipPath id="clip0_111_1754">
<rect width="140" height="76" fill="white" transform="translate(0 0.5)"/>
</clipPath>
</defs>
</svg>
