<svg width="134" height="65" viewBox="0 0 134 65" fill="none" xmlns="http://www.w3.org/2000/svg">
<path fill-rule="evenodd" clip-rule="evenodd" d="M0.897461 45.8942V30.5138H6.19403C7.00871 30.4122 7.72184 30.6161 8.43497 31.023C9.04579 31.4308 9.65737 31.94 10.0643 32.5509C10.4721 33.2647 10.6752 33.9771 10.6752 34.7926C10.6752 35.5049 10.4713 36.3189 10.0643 36.9304C9.75892 37.5413 9.35121 38.0513 8.74038 38.4583C8.43497 38.6621 8.12956 38.8652 7.72184 38.9683C7.31412 39.0698 6.80485 39.1714 6.39789 39.1714H2.73069V45.895L0.897461 45.8942ZM2.73069 37.5413H6.29558C6.80485 37.5413 7.21257 37.3382 7.61953 37.1343C8.03432 36.8367 8.38143 36.4547 8.63808 36.0135C8.84652 35.6037 8.95138 35.1491 8.94349 34.6895C8.84118 34.181 8.73963 33.7725 8.43422 33.3655C8.23836 32.9669 7.91588 32.6444 7.51723 32.4486C7.21182 32.2447 6.8041 32.1431 6.39713 32.1431C6.29483 32.0416 6.19328 32.0416 6.09172 32.0416H2.83224L2.73069 37.5413ZM8.43497 45.8942L14.5462 30.3107H16.1763L22.593 45.8942H20.4529L18.925 41.9216H11.8976L10.3697 45.8942H8.43497ZM12.6107 40.2915H18.2127L15.3601 33.264L12.6107 40.2915ZM23.9162 45.8942V32.2447L19.3328 32.1431V30.3099H30.639L30.5367 32.0416L25.8517 32.1431V45.8942H23.9162ZM31.8614 45.8942V30.3099H40.6206L39.602 32.0416H33.7962V37.0327H39.2959V38.7637H33.7962V44.2648H39.7036L40.7221 45.8942H31.8614ZM43.0646 59.4399V58.2175H48.1573V62.2917L47.2404 63.2087C46.8326 63.5141 46.4257 63.8195 45.9164 64.0241C45.5087 64.2272 44.9994 64.3295 44.4901 64.4311C44.0824 64.5326 43.5732 64.5326 43.0639 64.5326C42.3507 64.4311 41.7399 64.2272 41.1291 64.0241C40.7214 63.8202 40.416 63.6156 40.1106 63.3102C39.7234 63.0122 39.41 62.6293 39.1943 62.1909C38.6851 61.477 38.3796 60.6631 38.2773 59.7461L38.1758 58.8291C38.0742 58.1882 38.0742 57.5352 38.1758 56.8943C38.3796 55.8758 38.6851 54.9595 39.1943 54.1441C39.7036 53.5333 40.3152 52.9217 41.0275 52.5147C41.2314 52.4132 41.4353 52.3109 41.7407 52.2093C42.2499 52.0055 42.7592 52.0055 43.37 51.9039C43.9809 51.9039 44.694 52.0055 45.3056 52.2093C45.9172 52.4132 46.528 52.8201 47.0372 53.2279C47.2411 53.4317 47.3427 53.5333 47.445 53.7379L47.9542 54.2479L47.038 54.9603L46.7326 54.7564C46.3186 54.2424 45.7971 53.8251 45.2048 53.534L44.2878 53.2286H43.3708C42.76 53.2286 42.1484 53.4325 41.5376 53.7386C41.3337 53.9425 41.0283 54.1456 40.8244 54.3495C40.6206 54.6549 40.4167 54.9603 40.3152 55.2664C40.1113 55.6734 39.9075 56.0804 39.8051 56.4888L39.7036 57.2012V58.729L39.8051 59.4414L40.009 60.1538C40.1106 60.5623 40.2129 60.8662 40.416 61.2746C40.7214 61.6816 41.0268 62.0886 41.4345 62.497C41.8415 62.7001 42.1469 62.904 42.6569 63.0056C43.1662 63.2094 43.6755 63.2094 44.1847 63.1086C44.694 63.1086 45.2033 62.9048 45.611 62.5986C45.9164 62.497 46.1203 62.2932 46.3241 62.1916L46.6295 61.8862V59.4414H43.0646V59.4399ZM41.9445 45.8942V30.3099H43.8801V37.3389L50.0929 30.3099H52.5369L47.7504 35.708L53.0469 45.8942H50.7037L46.4257 37.3389L43.8801 40.1907V45.8942H41.9445ZM49.889 64.3295V52.3101H56.7134L56.0003 53.6356H51.5184V57.4036H55.6949V58.7275H51.5184V63.0048H56.0003L56.7134 64.3295H49.889ZM68.1205 21.4492H67.9181L67.815 21.5508L67.7135 21.7546V22.06L67.815 22.2639V22.4678L67.9181 22.5693L68.0189 22.6709V22.8747L68.1205 23.0786V23.1801L68.222 23.384V23.6901H68.3251V23.9948L68.222 24.1987V24.6064L68.1205 24.7079V24.8102H68.0189V24.9118L67.9181 25.1157L67.7135 25.3195L67.6119 25.4211L67.4073 25.6249L67.3058 25.7265L67.1019 25.8288L66.8988 26.0319L66.6949 25.8288L66.5926 25.7265L66.3888 25.6249L66.2872 25.4211L66.1857 25.3195L66.0841 25.1157L65.9818 25.0134L65.8803 24.8102V24.7079L65.778 24.5048V24.1987L65.6764 23.9948V23.7917L65.778 23.6901V23.2824L65.8803 23.1801V22.9763L65.9818 22.8747L66.1857 22.3654L66.2872 22.2639V21.6523L66.1857 21.5508L66.0841 21.4492H65.8803L65.778 21.5508H65.5741L65.4725 21.6523L64.8617 22.06L64.7594 22.1616L64.5556 22.2639H64.454L64.3525 22.3654H64.1486L64.047 22.4678H63.4355L63.3332 22.3654H63.1301L62.9262 22.2639L62.8246 22.1616L62.7223 22.06L62.5185 21.9585L62.4169 21.8562L62.3154 21.6523L62.2131 21.5508V21.3469L62.1115 21.2453V20.6338L62.2131 20.5322V20.3284L62.3154 20.2268V20.0229L62.4169 19.9214L62.5185 19.8191V19.7168L62.6208 19.6152L62.7223 19.4114L63.6393 18.4951L64.2501 17.8843L64.3525 17.782L64.454 17.5781L64.5556 17.4766L64.6579 17.3743V17.2727L64.8617 16.7635L64.9633 16.6619V16.4581L65.0648 16.3557H65.1671L65.2687 16.4581L65.3702 16.5596V16.6619L65.4725 16.865V16.9673L65.3702 17.1704V17.3743L65.2687 17.5781L65.1671 17.782L64.7594 18.5967L64.454 19.2075V19.4114L64.3525 19.6152V19.8191L64.454 19.9214V20.1245L64.5556 20.2268L64.7594 20.3284L64.8617 20.4299H65.6764L65.8803 20.3284H65.9818L66.0841 20.2268L66.1857 20.1245L66.2872 20.0229L66.3888 19.9214L66.4911 19.7168V19.6152L66.5926 19.4114V13.8101H60.7876V13.9117H60.5837L60.4814 14.0133L60.3798 14.1148H60.2783L60.0744 14.2171V14.3187L59.9729 14.421L59.8706 14.6248V14.7264L59.769 14.8287V15.4395L59.8706 15.6434L59.9729 15.7449L60.0744 15.8465V15.9488L60.2783 16.0503H61.093L61.1945 15.9488H61.2961L61.3984 15.8465L61.9077 15.6434L62.2131 15.4395L62.4169 15.3372H62.5185L62.7223 15.2357H62.8246L62.9262 15.1333H63.537L63.6393 15.2357L63.7409 15.3372V15.5411L63.6393 15.6434H63.3332L63.2324 15.7449H63.0277L62.9262 15.8465L62.8246 15.9488L62.1115 16.4581L61.2961 17.0689L60.6853 17.6805L60.4814 17.782L60.3798 17.9851H60.176V18.0874L59.9729 18.1897H59.8706L59.6667 18.2913H58.7505L58.5466 18.1897H58.4443L58.3428 18.0874L58.1389 17.9851L58.0373 17.8843L57.9358 17.6805L57.7319 17.5781V17.3743L57.6296 17.2727V16.2542L57.7319 16.1519L57.9358 15.8465L58.0373 15.7449L58.4443 15.1333L58.5466 15.0318L58.6482 14.8287V14.7264L58.7505 14.5225L58.6482 14.421V14.3187L58.5466 14.2171H58.4443L58.3428 14.1148H58.1389L57.9358 14.2171H57.8335L57.3242 14.421L57.2227 14.5225H57.1204L57.0188 14.6248H56.8149L56.7134 14.7264H56.1018L56.0003 14.6248H55.6949L55.491 14.5225L55.3887 14.421H55.2871L55.1856 14.3187H55.0833L54.9817 14.2171L54.7779 14.0133L54.574 13.9117V13.8101L54.3701 13.7078L54.167 13.4024L54.4725 13.097L54.8802 12.6893L54.9817 12.5877H55.0833L55.1856 12.3839L55.3887 12.2816H55.5925L55.6949 12.18H55.8987L56.1018 12.0785H56.6111L56.8149 12.18H56.9173L57.0188 12.2816L57.5281 12.4854L57.7319 12.5877L57.8335 12.6893H58.5466L58.6482 12.4854H58.7505V12.18L58.6482 12.0785L58.5466 11.8746L58.4443 11.6708L58.3428 11.5692L58.1389 11.1615L58.0373 11.0592V10.9584L57.9358 10.8561L57.8335 10.6522V10.4484L57.7319 10.2445V9.93909L57.8335 9.73598V9.53212L57.9358 9.42981L58.0373 9.22671L58.1389 9.1244L58.2412 9.0221L58.3428 8.92129L58.4443 8.81899L58.5466 8.71669H58.6482L58.852 8.61513H59.0559L59.259 8.51358H59.4629L59.5652 8.61513H59.8706L60.0744 8.71669H60.2783L60.3798 8.81899H60.4814L60.5837 8.92129L60.6853 9.0221L60.7876 9.1244L60.9907 9.22671L61.093 9.42981L62.01 10.2445L62.1115 10.4484L62.3154 10.6522L62.6208 10.8561L62.8246 11.0592H62.9262L63.0277 11.1615H63.1301L63.2324 11.263H63.6393L63.7409 11.3653L63.8432 11.4669V11.6708L63.6393 11.7731L63.537 11.8746H63.2324L63.1301 11.7731H62.9262L62.5185 11.5692H62.4169L62.2131 11.4669L61.7038 11.1615L61.093 10.8561H60.9907L60.7876 10.7538H60.3798L60.2783 10.8561H60.176L59.9729 10.9584L59.8706 11.0592V11.1615L59.769 11.3653V11.4669L59.6667 11.6708V11.9762L59.769 12.18L59.8706 12.2816V12.4854L60.0744 12.5877L60.176 12.6893L60.2783 12.7916H60.3798L60.5837 12.8932H66.5926V7.18887L66.4911 7.08732V6.88346L66.3888 6.78191V6.6796L66.2872 6.57805L66.1857 6.4765L66.0841 6.37419L65.8803 6.27264L65.778 6.17033H65.5741L65.3702 6.06878H65.2687L65.0648 6.17033H64.9633L64.7594 6.27264H64.6579L64.5556 6.37419L64.454 6.57805V6.6796L64.3525 6.88346V6.98501L64.454 7.08732V7.39273L64.5556 7.49504V7.59659L64.8617 8.41127L65.1671 9.0221L65.2687 9.22671L65.3702 9.42981V9.83753L65.2687 10.0414L65.1671 10.1429L65.0648 10.2445L64.9633 10.1429L64.8617 10.0414V9.63368L64.7594 9.53212L64.6579 9.32826L64.454 9.0221L64.3525 8.81899L64.2501 8.71669L63.9447 8.41127L63.1301 7.49504L62.6208 6.88346L62.5185 6.6796L62.4169 6.4765L62.3154 6.37419L62.2131 6.17033V5.86492L62.1115 5.76336V5.35565L62.2131 5.15179V5.05024L62.3154 4.84638L62.4169 4.74482V4.64327L62.6208 4.54096L62.7223 4.33711L62.8246 4.23555L62.9262 4.13325H63.1301L63.2324 4.03169H63.537L63.7409 3.93014L63.8432 4.03169H64.1486L64.3525 4.13325H64.454L64.5556 4.23555L64.8617 4.43941L65.1671 4.74482L65.4725 4.84638L65.5741 4.94868L65.778 5.05024H66.0841L66.1857 4.94868L66.2872 4.84638L66.3888 4.74482V4.54096L66.2872 4.43941V4.23555L66.1857 4.13325L66.0841 3.93014L65.9818 3.62473L65.778 3.21701V3.01315L65.6764 2.9116V2.40233L65.778 2.19847V2.09616L65.8803 1.99461V1.7915L65.9818 1.58765L66.0841 1.48534L66.1857 1.38379L66.2872 1.17993L66.3888 1.07838L66.4911 0.976069L66.5926 0.874517L67.0004 0.466797L67.2042 0.670658L67.4073 0.874517L67.6119 0.976069L67.7135 1.17993L67.815 1.28148L67.9181 1.48534L68.0189 1.58765L68.1205 1.7915V1.89306L68.222 1.99461V2.09616L68.3251 2.30002V3.01315L68.222 3.21701L68.1205 3.62473L68.0189 3.82784V3.93014L67.815 4.23555V4.33711L67.7135 4.43941V4.64327L67.815 4.74482V4.94868L67.9181 5.05024H68.0189L68.222 5.15179L68.3251 5.05024H68.5274L68.6305 4.94868L68.8328 4.84638L68.9359 4.74482L69.4444 4.33711H69.6483L69.7498 4.23555H69.8529L69.9544 4.13325H70.8707L71.0753 4.23555L71.1768 4.33711L71.3792 4.43941L71.4822 4.54096L71.5838 4.64327L71.6846 4.74482L71.7877 4.84638V5.05024L71.8892 5.15179V5.35565L71.9908 5.55951V5.66181L71.8892 5.86492V6.17033L71.7877 6.27264V6.37419L71.6846 6.57805V6.6796L71.5838 6.78191L71.4822 6.88346L71.3792 7.08732L71.1768 7.29118L70.9722 7.49504L70.5653 7.902L70.2598 8.30972L69.9544 8.61513L69.7498 8.81899L69.5475 9.0221L69.3429 9.42981L69.2413 9.53212L69.139 9.63368V9.83753L69.0374 9.93909V10.0414L68.9359 10.1429H68.8328L68.732 10.0414L68.6305 9.83753V9.42981L68.732 9.32826V9.22671L68.8328 9.1244L69.139 8.30972L69.4444 7.6989L69.5475 7.59659V7.39273L69.6483 7.29118V6.6796L69.5475 6.57805V6.4765L69.4444 6.37419V6.27264L69.3429 6.17033H69.139L69.0374 6.06878H68.5274L68.3251 6.17033H68.222L68.1205 6.27264L68.0189 6.37419L67.9181 6.4765L67.7135 6.6796L67.6119 6.78191V6.98501L67.5096 7.08732V12.9947L72.2962 12.8932H73.417L73.5186 12.7916H73.6216L73.7224 12.6893L73.824 12.5877L73.927 12.3839L74.0286 12.2816L74.1294 12.0785L74.2325 11.9762V11.263L74.1294 11.1615V10.9584L74.0286 10.8561L73.927 10.7538H73.1116L73.0101 10.8561H72.907L72.7046 10.9584L72.0931 11.263L71.3792 11.5692H71.2776L71.0753 11.6708H70.9722L70.7699 11.7731H70.6668L70.4637 11.6708H70.3614L70.2598 11.5692V11.3653L70.3614 11.263L70.5653 11.1615H70.7699L70.9722 11.0592H71.0753L71.5838 10.6522L72.2962 10.0414L73.1116 9.32826L73.7224 8.92129L73.824 8.81899L73.927 8.71669L74.1294 8.61513H74.2325L74.4356 8.51358H75.251L75.3518 8.61513H75.5564L75.658 8.71669L75.7603 8.81899L75.9634 8.92129L76.0664 9.0221L76.1672 9.22671L76.2688 9.42981V9.53212L76.3703 9.63368V10.4484L76.2688 10.5507V10.6522L76.1672 10.8561L76.0664 10.9584V11.0592L75.658 11.5692L75.5564 11.6708V11.7731L75.4549 11.8746L75.3518 11.9762V12.3839L75.4549 12.4854L75.5564 12.5877L75.658 12.6893H75.9634L76.0664 12.5877H76.1672L76.5742 12.3839H76.6758L76.8804 12.2816H76.9812L77.0842 12.18H77.3896L77.5927 12.0785H78.0012L78.1028 12.18H78.3066L78.5097 12.2816L78.7136 12.3839L78.8151 12.4854L79.019 12.5877L79.1206 12.6893L79.3252 12.7916L79.426 12.8932L79.5275 13.097L79.8337 13.4024L79.5275 13.8101L79.426 13.9117L79.3252 14.0133L79.2236 14.1148L79.1206 14.2171L78.9182 14.3187L78.8151 14.421L78.612 14.5225H78.5097L78.3066 14.6248H78.0012L77.8982 14.7264H77.5927L77.4912 14.6248H77.0842L76.9812 14.5225H76.7788L76.6758 14.421H76.5742L76.4734 14.3187L76.1672 14.1148H75.5564L75.4549 14.2171L75.3518 14.3187L75.251 14.421V14.7264L75.3518 14.8287L75.4549 15.0318L75.5564 15.1333L75.7603 15.4395L75.9634 15.7449L76.0664 15.9488L76.1672 16.0503V16.4581L76.2688 16.5596V16.9673L76.1672 17.0689V17.2727L76.0664 17.3743V17.4766L75.9634 17.6805L75.8618 17.782L75.7603 17.8843L75.5564 17.9851L75.4549 18.0874L75.3518 18.1897H75.1494L75.0464 18.2913H74.2325L74.1294 18.1897H73.927L73.824 18.0874L73.7224 17.9851L73.5186 17.8843L73.417 17.782L73.2132 17.6805L72.3992 16.865L71.6846 16.2542L71.4822 15.9488L71.1768 15.7449L71.0753 15.6434L70.5653 15.4395L70.3614 15.3372L70.2598 15.2357L70.3614 15.0318H70.4637L70.5653 14.9302H70.7699L70.8707 15.0318H71.1768L71.2776 15.1333H71.4822L71.7877 15.3372L72.5 15.7449L72.8062 15.9488H73.0101L73.2132 16.0503H73.6216L73.824 15.9488L74.0286 15.8465L74.1294 15.7449L74.2325 15.5411V15.4395L74.334 15.3372V15.0318L74.2325 14.9302V14.7264L74.1294 14.6248V14.421L74.0286 14.3187L73.927 14.2171L73.824 14.1148L73.7224 14.0133H73.5186L73.417 13.9117H73.2132L73.0101 13.8101H67.5096V19.2075L67.6119 19.5137V19.7168L67.7135 19.8191V19.9214L67.815 20.0229L67.9181 20.1245L68.0189 20.2268H68.1205L68.222 20.3284L68.3251 20.4299H69.2413L69.3429 20.3284L69.4444 20.2268L69.5475 20.1245L69.6483 20.0229L69.7498 19.9214V19.4114L69.6483 19.3098V19.0044L69.5475 18.9021L69.3429 18.4951L69.0374 17.782L68.8328 17.2727L68.732 17.0689V16.5596L68.8328 16.4581L68.9359 16.3557L69.0374 16.2542L69.139 16.3557L69.2413 16.4581V16.865L69.3429 16.9673V17.0689L69.5475 17.3743L69.6483 17.5781L69.8529 17.782L69.9544 17.9851L70.6668 18.8005L71.2776 19.6152L71.3792 19.7168L71.4822 19.8191L71.5838 19.9214L71.6846 20.1245V20.2268L71.7877 20.3284V20.4299L71.8892 20.6338V21.5508L71.7877 21.6523V21.7546L71.6846 21.8562L71.5838 22.06L71.3792 22.1616L71.2776 22.2639L71.1768 22.3654L70.9722 22.4678H70.8707L70.6668 22.5693H70.0552L69.9544 22.4678H69.8529L69.6483 22.3654H69.5475L69.4444 22.2639H69.3429L69.2413 22.1616L69.139 22.06L68.5274 21.6523L68.4259 21.5508L68.3251 21.4492H68.1205ZM58.3428 64.3295L58.2412 52.3101H60.4814L65.4725 61.6809V52.3101H67.0004V64.3295H65.1671L59.769 54.1433V64.3295H58.3428ZM58.852 45.995L58.7505 30.513H64.1486C64.9633 30.513 65.6764 30.7169 66.3895 31.0223C67.0004 31.43 67.6127 31.9393 67.9181 32.6524C68.3251 33.2632 68.5282 34.0779 68.6305 34.7918C68.6305 35.6057 68.4266 36.3181 68.0197 37.0327C67.7142 37.5413 67.3065 38.0513 66.6949 38.4583C66.3895 38.6621 66.0841 38.8652 65.6764 38.9683C65.2626 39.1653 64.8108 39.2696 64.3525 39.2737H60.6853V45.9958L58.852 45.995ZM60.6853 37.5413H64.2501C64.6579 37.5413 65.1671 37.4397 65.5741 37.1343C65.9818 36.9304 66.2872 36.5235 66.4911 36.1158C66.6949 35.7073 66.8988 35.1988 66.7965 34.6895C66.7965 34.2825 66.6942 33.7725 66.3888 33.3655C66.1932 32.967 65.8709 32.6445 65.4725 32.4486C65.1671 32.2447 64.7594 32.1431 64.3525 32.1431H60.6853V37.5413ZM69.0374 64.3295V52.3101H76.6758L80.2414 62.1909L83.5001 52.3101H85.2326L81.1584 64.1257H79.426L75.4549 53.6356H70.6668V57.3013H74.741V58.7275H70.5653V63.0048H75.251L75.9634 64.3295H69.0374ZM69.8529 45.995V30.3099H71.7877V36.8289H78.8151L78.7136 30.3099H80.6484V45.995H78.7136L78.8151 38.6621H71.7877V45.995H69.8529ZM83.2963 45.995V30.4122H85.2326V45.995H83.2963ZM85.7411 64.3295V52.3101H92.4647L91.75 53.6356H87.2689V57.3013H91.4446V58.6245H87.2689V62.9033H91.9546L92.667 64.2272L85.7411 64.3295ZM87.4735 45.995L87.3719 30.3099H89.4083V44.0602H96.2327V45.995H87.4735ZM97.5566 45.995V30.3099H99.4914V45.995H97.5566ZM101.631 45.995V30.3099H106.927C107.741 30.3099 108.455 30.5138 109.168 30.9207C109.826 31.2919 110.385 31.8159 110.798 32.4486C111.205 33.1609 111.408 33.8748 111.408 34.6895C111.408 35.4019 111.205 36.2173 110.898 36.8289C110.491 37.4397 110.085 37.9497 109.574 38.3567C109.168 38.5598 108.862 38.6621 108.455 38.8652C108.047 38.9683 107.64 39.0691 107.13 39.0691H103.566V45.995H101.631ZM103.566 37.4397H107.029C107.539 37.4397 107.946 37.2359 108.353 37.0327C108.761 36.7273 109.168 36.4219 109.372 35.9119C109.569 35.4981 109.673 35.0462 109.678 34.5879C109.678 34.0779 109.474 33.5694 109.269 33.1617C108.964 32.8563 108.658 32.5509 108.352 32.3478C107.945 32.1439 107.538 32.0416 107.13 31.94H103.566V37.4397ZM112.936 45.995V30.3099H118.334C119.047 30.3099 119.862 30.5138 120.474 30.9207C121.132 31.2919 121.69 31.8159 122.103 32.4486C122.51 33.1609 122.714 33.8748 122.714 34.6895C122.714 35.4019 122.612 36.2173 122.204 36.8289C121.899 37.4397 121.39 37.9497 120.88 38.3567C120.575 38.5598 120.168 38.6621 119.861 38.8652C119.455 38.9683 118.944 39.0691 118.435 39.0691H114.871V45.995H112.936ZM114.872 37.4397H118.335C118.845 37.4397 119.354 37.2359 119.761 37.0327C120.168 36.7273 120.474 36.4219 120.678 35.9119C120.875 35.4981 120.98 35.0462 120.984 34.5879C120.984 34.0779 120.881 33.5694 120.575 33.1617C120.346 32.8152 120.03 32.5346 119.658 32.3478C119.303 32.1672 118.927 32.0303 118.539 31.94H114.872V37.4397ZM124.243 45.995V30.3099H132.899L132.085 32.0416H126.177V36.8289H131.067V38.5598H126.279V44.0602H132.186L133.103 45.995H124.243Z" fill="white"/>
</svg>
