<svg width="143" height="87" viewBox="0 0 143 87" fill="none" xmlns="http://www.w3.org/2000/svg">
<g clip-path="url(#clip0_110_1330)">
<path fill-rule="evenodd" clip-rule="evenodd" d="M91.9119 16.641C91.6155 15.9507 91.0222 15.4577 90.4296 15.1615C89.5397 14.9649 88.6503 15.0631 88.057 15.8516C87.5629 16.4437 87.2658 17.4295 87.7604 18.2187C87.9584 18.9091 88.6503 19.1064 88.6503 19.8956L82.4224 34.0968C82.0271 34.5905 82.0271 35.3783 81.5327 35.6748C81.335 35.5763 81.1372 35.3783 81.1372 35.1817L81.8291 23.446L82.3233 15.4574C82.4224 14.8653 82.126 13.9779 82.6204 13.4842C83.5101 13.2876 84.1026 12.893 84.4981 12.2027C84.7945 11.4142 84.7945 10.2301 84.2017 9.63893C83.6085 9.04679 82.9166 8.84949 82.0269 8.94791C81.2356 9.24433 80.3467 9.83553 80.2476 10.9212C80.1489 12.0054 80.7415 12.893 81.5327 13.2876C81.7305 13.2876 81.8291 13.4842 81.9283 13.6822L77.0842 34.7871C76.9858 35.1817 76.6887 35.4775 76.4909 35.3783C76.3923 35.2802 76.1945 35.0835 76.1945 34.8853L74.0194 11.7097C74.4149 10.822 75.5026 10.9209 75.7988 9.93441C76.0952 9.4407 75.9968 8.55307 75.8981 7.96187C75.5026 7.37067 74.9093 6.97583 74.2174 6.77853C73.6249 6.67941 72.933 6.97583 72.4388 7.17243C71.8448 7.66545 71.3507 8.45489 71.5491 9.4407C71.6475 10.0335 71.9439 10.4279 72.3388 10.7229C72.6359 11.1175 73.4269 11.0193 73.4269 11.7097L72.4386 23.3469L71.4498 35.0833L71.252 35.4772C71.0543 35.6745 70.7579 35.3781 70.7579 35.2799L65.3219 14.4719C65.2228 14.1755 65.2228 13.7809 65.4204 13.4844C66.2116 12.9916 66.8042 11.8083 66.6064 10.7234C66.2116 9.73735 65.519 9.14614 64.4323 9.14614C63.5426 9.24433 62.6529 9.63916 62.3561 10.5268C61.9606 11.4144 62.159 12.4986 62.7516 13.0905C63.2458 13.6827 64.4323 13.2878 64.7287 14.077L65.1242 17.9225L67.0022 35.4777C67.0022 35.9714 67.1999 36.4642 66.9028 36.859C66.8044 36.9572 66.5073 36.9572 66.4087 36.7599C63.9384 31.5333 61.4662 26.0103 58.9952 20.6845C58.8965 20.2906 58.6004 19.7969 58.7974 19.3032C59.0945 18.9093 59.49 18.5154 59.6871 18.0217C59.7862 17.4295 59.7862 16.8383 59.3907 16.3453C59.1929 15.8516 58.699 15.5559 58.1062 15.3588C57.3152 15.1615 56.2275 15.4577 55.6343 16.0489C55.1401 16.641 55.1401 17.7257 55.4372 18.5152C55.7336 19.1064 56.2275 19.5012 56.821 19.5994C57.4136 19.7967 58.0071 19.5994 58.3033 20.1915C60.6752 27.9828 62.8502 35.7734 65.0251 43.5654L66.2118 44.453C68.6824 45.9319 71.5498 47.2143 74.6136 47.0163C75.8988 46.9179 76.9862 46.5233 77.9745 46.1287C78.9629 45.8337 79.7536 45.4391 80.5449 44.946C81.2361 44.748 81.7307 44.255 82.3235 43.8611L87.266 26.7006L89.1445 20.0926C89.54 19.1066 91.0224 19.5996 91.517 18.6138C91.7141 18.0217 92.0112 17.3313 91.9119 16.641ZM81.533 43.6636C79.6545 44.5512 77.6781 45.2415 75.3053 45.3404C72.1422 45.8334 68.3857 44.7476 65.9145 43.466C65.7175 43.466 65.8161 43.2688 65.9145 43.1703C67.8916 41.7897 70.1651 41.0005 72.8341 40.7041C76.0956 40.6059 79.1601 41.1971 81.533 43.0712C81.8291 43.269 81.8291 43.5654 81.533 43.6636Z" fill="#AF9B6D"/>
<path fill-rule="evenodd" clip-rule="evenodd" d="M68.8815 76.4061C68.8815 76.8007 69.1779 77.0971 69.474 77.2937H70.4623C72.9343 77.1955 73.9226 77.4919 76.2952 77.0971C77.0855 76.7025 77.8761 76.3077 78.1729 75.2237C78.5684 73.6448 78.5684 71.8695 78.7662 70.1927H80.8419V79.562L60.6758 79.6604V77.2939C61.9612 77.1957 62.2581 77.3923 63.7403 77.1957C63.939 76.9989 64.4329 76.7027 64.3338 76.2097V61.6129C64.2344 61.0217 64.3338 60.1341 63.7403 59.7395C62.8506 59.2465 61.2697 59.5413 60.7749 59.3449V57.1748H72.8347V59.1483C71.945 59.4433 70.3635 59.2465 69.5722 59.5415C69.2758 59.5415 68.881 59.9361 68.881 60.3309V76.4061H68.8815Z" fill="#496364"/>
<path fill-rule="evenodd" clip-rule="evenodd" d="M87.8592 60.3309C87.8592 60.0359 87.7605 59.6413 87.4637 59.5415C86.2778 59.4433 85.4873 59.5415 84.2021 59.4433V57.1748H105.751V66.1494H103.576C103.576 63.783 103.478 60.9233 101.501 59.8377C100.907 59.6411 100.315 59.5413 99.6228 59.4433L93.1974 59.5415C93.099 59.6413 92.3077 59.4433 92.2091 59.8379V66.4461L92.5055 66.7425C94.0873 66.7425 96.1628 67.0375 96.9538 65.0657C97.2502 64.2762 97.3493 62.4028 97.3493 62.4028H99.3257V73.9419H97.0522C96.9536 72.5615 97.25 70.4898 96.0639 69.7004C95.174 68.911 93.7902 69.0108 92.505 69.2074L92.2086 69.4056V76.9996C92.3073 77.393 92.8012 77.2946 93.0985 77.2946C95.2727 77.1964 97.2498 77.393 100.215 77.1964C101.698 76.9 102.884 75.7174 103.18 73.9421C103.378 72.6599 103.378 71.3777 103.477 70.0955H105.751L105.652 79.6613H84.1025V77.2949C85.4871 77.2949 86.7715 77.4931 87.4634 77.0983C87.859 76.8018 87.9583 76.1111 87.859 75.6178V60.3309H87.8592Z" fill="#496364"/>
<path fill-rule="evenodd" clip-rule="evenodd" d="M136.692 79.6606H123.742V77.3923C124.434 77.1957 126.016 77.5903 126.807 77.0973C127.103 76.8991 127.202 76.4063 127.202 76.0117C125.917 74.2365 124.533 72.561 123.15 70.884C122.754 70.884 122.457 71.1804 122.161 71.5736L118.602 75.7169C118.504 76.1104 118.404 76.4065 118.602 76.8011C118.8 77.0976 119.097 77.2939 119.492 77.3923H121.667V79.6606L110.299 79.5622V77.3923C111.288 77.2939 111.584 77.4922 112.671 77.2939C113.363 77.0973 113.957 76.7027 114.549 76.1101C116.625 73.5471 118.899 70.9824 121.173 68.4179L120.975 68.1229C119.097 65.5582 117.12 62.9938 115.043 60.4293C114.549 59.6413 113.363 59.5415 112.276 59.5415H111.188V57.175H123.347V59.4435C122.952 59.6415 122.26 59.4435 121.765 59.5417C121.37 59.5417 121.173 59.74 120.876 59.9363C120.677 60.2327 120.579 60.7258 120.777 61.0219L123.841 64.967H124.138C125.324 63.6848 126.51 62.2044 127.696 60.7255C127.894 60.4291 127.894 59.9361 127.597 59.6413L127.202 59.5415L125.225 59.4433L125.127 57.1748H135.703V59.4433C135.703 59.4433 132.639 59.2465 131.848 60.2325C129.871 62.6988 127.795 64.967 125.819 67.4319L126.213 68.0231L132.737 76.3079C133.529 77.3921 135.11 77.2939 136.691 77.2939V79.6606H136.692Z" fill="#496364"/>
<path fill-rule="evenodd" clip-rule="evenodd" d="M29.6369 73.5473H27.8576C27.7592 74.6313 27.9567 75.7172 27.5612 76.703C27.3635 77.0976 26.9677 77.196 26.5722 77.0976C26.1774 76.9991 25.881 76.8011 25.6825 76.4065C25.3861 74.6313 25.5839 72.6595 25.1884 70.884C24.6942 69.109 23.1127 68.7141 21.6297 68.3195C21.5313 68.3195 21.4327 68.0231 21.6297 68.0231C23.3104 67.6297 24.6942 67.4319 25.881 66.2479C27.1655 65.1639 27.759 62.6988 27.1655 60.7255C26.2765 58.0627 23.7062 57.2732 21.4327 57.1748H6.50635V59.2465C7.59377 59.3449 8.77983 59.2465 9.6695 59.5415C9.9659 59.6413 10.065 60.0359 10.1644 60.3309V73.7437L9.9659 76.5047C9.37333 77.8854 7.39601 77.2942 6.30859 77.4922V79.6606H18.0713V77.3923H15.6008L14.9081 77.2939C14.6117 77.0973 14.5126 76.7027 14.5126 76.3079V69.3053L14.8097 69.1087C16.0949 69.0103 16.8862 68.9105 18.5662 69.1087C19.5545 69.3053 20.2461 69.9964 20.7403 70.8837C21.4329 72.9554 21.1358 75.2237 21.5315 77.4919C21.7293 78.7742 22.5199 79.562 23.5086 79.9566C25.0902 80.5478 27.3637 80.5478 28.5502 79.562C29.934 78.0836 29.5385 75.5189 29.6369 73.5473ZM19.8506 66.2481C17.2807 66.3479 16.5888 66.3479 14.7111 66.3479L14.5124 66.1499V59.74C14.5124 59.5417 14.9079 59.4435 15.1066 59.4435C16.5888 59.74 20.0491 58.9505 21.4329 60.2327C22.2239 61.0222 22.8165 62.4028 22.5196 63.8816C22.0257 65.1641 21.1358 66.1499 19.8506 66.2481Z" fill="#496364"/>
<path fill-rule="evenodd" clip-rule="evenodd" d="M53.9546 60.429C52.076 58.3587 49.8027 57.1747 46.738 56.7801C45.9476 56.6816 45.9476 56.7801 45.0577 56.6816C42.4881 56.7801 40.1153 57.6677 38.0398 59.1479C34.7775 61.5144 32.7018 66.7419 33.987 71.4748C35.173 75.9127 38.1382 78.7738 41.8948 79.9562C42.9822 80.1528 44.8602 80.3508 45.8483 80.3508C50.396 80.2524 53.9546 77.6879 56.0304 73.4478C57.9081 69.2065 56.8214 63.388 53.9546 60.429ZM50.1982 74.7305C49.1108 76.4062 47.1337 77.4918 45.2557 77.392C44.2674 77.392 43.0809 77.1954 42.2896 76.6039C39.4236 74.9271 38.6323 70.6856 38.9294 66.9385C39.1265 63.9795 40.5103 60.9232 42.8836 59.9359C43.8719 59.4432 44.9584 59.5413 46.3422 59.5413C48.0229 59.8378 49.5061 60.9234 50.3957 62.5988C52.1753 66.0509 52.1753 71.3766 50.1982 74.7305Z" fill="#496364"/>
</g>
<defs>
<clipPath id="clip0_110_1330">
<rect width="143" height="86" fill="white" transform="translate(0 0.5)"/>
</clipPath>
</defs>
</svg>
