<svg width="20" height="20" viewBox="0 0 20 20" fill="none" xmlns="http://www.w3.org/2000/svg">
<path d="M13.0522 9.5468L10.4997 9.49281L10.3983 6.0152C10.3983 5.7952 10.22 5.61719 10 5.61719C9.78033 5.61719 9.60197 5.7952 9.60197 6.0152L9.48584 9.9966C9.48584 10.2804 9.71592 10.5104 9.99998 10.5104L13.0521 10.4467C13.3005 10.4467 13.5019 10.245 13.5019 9.9966C13.5019 9.74785 13.3006 9.5468 13.0522 9.5468Z" fill="#202421"/>
<path d="M16.2977 6.80336L14.6248 2.75195H12.2222V3.27617C11.5228 3.04391 10.7776 2.91352 10.0002 2.91352C9.22283 2.91352 8.47697 3.04387 7.77752 3.27617V2.75195H5.37494L3.7008 6.80652C3.22232 7.75781 2.94678 8.82875 2.94678 9.9666C2.94678 11.1042 3.22268 12.1751 3.7008 13.1267L5.37494 17.181H7.77752V16.6568C8.47697 16.8891 9.22283 17.02 10.0002 17.02C10.7776 17.02 11.5228 16.8894 12.2222 16.6571V17.181H14.6248L16.2974 13.1305C16.7768 12.1779 17.0533 11.1057 17.0533 9.9666C17.0533 8.82781 16.7768 7.75594 16.2977 6.80336ZM15.2517 9.9666C15.251 11.4195 14.6653 12.7268 13.7136 13.68C12.7601 14.632 11.4534 15.2178 10.0002 15.2181C8.54705 15.2178 7.23971 14.632 6.28678 13.68C5.33482 12.7268 4.74869 11.4195 4.74869 9.9666C4.74869 8.51344 5.33482 7.20645 6.28678 6.25324C7.23967 5.3016 8.54701 4.71547 10.0002 4.71516C11.4534 4.71547 12.7607 5.30156 13.7136 6.25324C14.6652 7.20609 15.251 8.51344 15.2517 9.9666Z" fill="#202421"/>
<path d="M14.5344 1.02172C14.5344 0.457383 14.0771 0 13.5127 0H6.48736C5.92299 0 5.46533 0.457383 5.46533 1.02172V1.9825H14.5344V1.02172Z" fill="#202421"/>
<path d="M5.46533 18.9784C5.46533 19.5424 5.92299 19.9998 6.48736 19.9998H13.5127C14.0771 19.9998 14.5344 19.5424 14.5344 18.9784V18.0176H5.46533V18.9784Z" fill="#202421"/>
</svg>
