<svg width="30" height="30" viewBox="0 0 30 30" fill="none" xmlns="http://www.w3.org/2000/svg">
<path fill-rule="evenodd" clip-rule="evenodd" d="M15 0C6.7155 0 0 6.7155 0 15C0 17.835 0.7875 20.49 2.157 22.752L0.819 27.3C0.742177 27.5611 0.737122 27.8381 0.804367 28.1019C0.871611 28.3656 1.00867 28.6064 1.20114 28.7989C1.39361 28.9913 1.63437 29.1284 1.89812 29.1956C2.16188 29.2629 2.43888 29.2578 2.7 29.181L7.248 27.843C9.58601 29.2576 12.2673 30.0037 15 30C23.2845 30 30 23.2845 30 15C30 6.7155 23.2845 0 15 0ZM11.607 18.3945C14.6415 21.4275 17.538 21.828 18.561 21.8655C20.1165 21.9225 21.6315 20.7345 22.221 19.356C22.2954 19.1845 22.3224 18.9962 22.2992 18.8107C22.276 18.6252 22.2034 18.4494 22.089 18.3015C21.267 17.2515 20.1555 16.497 19.0695 15.747C18.8428 15.5902 18.5641 15.5273 18.292 15.5715C18.0199 15.6157 17.7755 15.7635 17.61 15.984L16.71 17.3565C16.6627 17.4303 16.5889 17.4832 16.5039 17.5044C16.4188 17.5256 16.3289 17.5135 16.2525 17.4705C15.642 17.121 14.7525 16.527 14.1135 15.888C13.4745 15.249 12.9165 14.4 12.603 13.8285C12.5641 13.7559 12.5529 13.6717 12.5714 13.5914C12.5899 13.5111 12.6368 13.4403 12.7035 13.392L14.0895 12.363C14.2873 12.191 14.4149 11.9523 14.4481 11.6923C14.4813 11.4323 14.4177 11.1692 14.2695 10.953C13.5975 9.969 12.8145 8.718 11.679 7.8885C11.5325 7.78231 11.3608 7.71609 11.1809 7.69636C11.001 7.67664 10.8191 7.70408 10.653 7.776C9.273 8.367 8.079 9.882 8.136 11.4405C8.1735 12.4635 8.574 15.36 11.607 18.3945Z" fill="white"/>
</svg>
