<svg width="700" height="516" viewBox="0 0 700 516" fill="none" xmlns="http://www.w3.org/2000/svg">
<circle cx="202.148" cy="202.148" r="201.148" transform="matrix(0.865704 -0.500556 0.865704 0.500556 0 313.625)" fill="url(#paint0_linear_304_22637)" stroke="white" stroke-width="2"/>
<circle cx="202.148" cy="202.148" r="201.148" transform="matrix(0.865704 -0.500556 0.865704 0.500556 0 301.203)" fill="#202421" stroke="white" stroke-width="2"/>
<circle cx="172.177" cy="172.177" r="171.177" transform="matrix(0.865704 -0.500556 0.865704 0.500556 53.4766 301.203)" fill="#202421" stroke="white" stroke-width="2"/>
<path d="M561.294 303.059L468.5 245.857L257.528 364.542L561.294 303.059Z" fill="#707070"/>
<path d="M434.499 225.675L227.507 340.951L434.499 12.1065V225.675Z" fill="#202421" stroke="white" stroke-width="2"/>
<path d="M433.168 223.924V86.0903L466.608 34.2863L467.444 243.751L433.168 223.924Z" fill="#202421" stroke="white" stroke-width="2"/>
<path d="M467.497 245.31L260.988 361.451L466.606 31.7432L467.497 245.31Z" stroke="white" stroke-width="2"/>
<path d="M225.239 342.708L435.851 9.95468L466.016 28.946L258.229 362.555L225.239 342.708Z" stroke="white" stroke-width="2"/>
<path d="M365.903 265.006L365.903 249.471L351.355 257.883L351.355 249.865L364.417 207.878L372.218 203.368L372.218 239.019L377.851 235.762L377.851 242.563L372.218 245.82L372.218 261.355L365.903 265.006ZM357.732 247.395L365.903 242.67L365.903 216.326L357.732 247.395Z" fill="white"/>
<path d="M396.695 247.846C393.847 249.492 391.495 250.113 389.638 249.707C387.822 249.278 386.46 248.037 385.552 245.985C384.685 243.909 384.252 241.224 384.252 237.931L384.252 212.947C384.252 209.558 384.685 206.349 385.552 203.318C386.419 200.24 387.76 197.46 389.576 194.978C391.433 192.473 393.806 190.385 396.695 188.714C399.584 187.044 401.936 186.4 403.752 186.781C405.568 187.163 406.909 188.392 407.776 190.468C408.643 192.496 409.076 195.205 409.076 198.593L409.076 223.578C409.076 226.918 408.622 230.14 407.714 233.242C406.847 236.32 405.506 239.124 403.69 241.654C401.874 244.135 399.542 246.199 396.695 247.846ZM396.695 241.546C398.263 240.639 399.439 239.434 400.223 237.931C401.049 236.404 401.606 234.745 401.895 232.956C402.225 231.094 402.39 229.281 402.39 227.515L402.39 202.388C402.39 200.526 402.246 198.868 401.957 197.412C401.668 195.909 401.111 194.895 400.285 194.37C399.501 193.821 398.304 194.012 396.695 194.942C395.085 195.873 393.868 197.078 393.042 198.558C392.217 200.037 391.66 201.695 391.371 203.533C391.082 205.323 390.938 207.148 390.938 209.009L390.938 234.137C390.938 235.903 391.082 237.537 391.371 239.041C391.701 240.472 392.279 241.475 393.104 242.047C393.971 242.596 395.168 242.429 396.695 241.546Z" fill="white"/>
<path d="M431.523 227.064L431.523 211.529L416.975 219.941L416.975 211.923L430.037 169.937L437.837 165.427L437.837 201.077L443.471 197.82L443.471 204.621L437.837 207.878L437.837 223.413L431.523 227.064ZM423.351 209.453L431.523 204.728L431.523 178.384L423.351 209.453Z" fill="white"/>
<defs>
<linearGradient id="paint0_linear_304_22637" x1="23.8541" y1="113.327" x2="179.168" y2="442.029" gradientUnits="userSpaceOnUse">
<stop stop-color="white"/>
<stop offset="0.561918" stop-color="#696969"/>
<stop offset="1" stop-color="white"/>
</linearGradient>
</defs>
</svg>
