<svg width="10" height="12" viewBox="0 0 10 12" fill="none" xmlns="http://www.w3.org/2000/svg">
<path d="M9.33301 1.68295L9.33301 10.3163C9.33301 10.9746 8.60801 11.3746 8.04967 11.0163L1.26634 6.69961C1.14758 6.62445 1.04976 6.52048 0.981974 6.39737C0.914189 6.27425 0.878645 6.13599 0.878645 5.99545C0.878645 5.8549 0.914189 5.71664 0.981974 5.59353C1.04976 5.47041 1.14758 5.36644 1.26634 5.29128L8.04967 0.982946C8.17537 0.90165 8.32067 0.855785 8.47026 0.850191C8.61985 0.844596 8.76817 0.879479 8.89959 0.95116C9.031 1.02284 9.14063 1.12866 9.21692 1.25746C9.2932 1.38626 9.33331 1.53325 9.33301 1.68295Z" fill="white"/>
</svg>
