<svg width="11" height="10" viewBox="0 0 11 10" fill="none" xmlns="http://www.w3.org/2000/svg">
<path d="M9.81705 0.666994L1.18372 0.666993C0.525387 0.666993 0.125387 1.39199 0.483721 1.95033L4.80039 8.73366C4.87555 8.85242 4.97952 8.95024 5.10263 9.01803C5.22575 9.08581 5.36401 9.12135 5.50455 9.12135C5.6451 9.12135 5.78336 9.08581 5.90647 9.01803C6.02959 8.95024 6.13356 8.85242 6.20872 8.73366L10.5171 1.95033C10.5984 1.82463 10.6442 1.67933 10.6498 1.52974C10.6554 1.38015 10.6205 1.23183 10.5488 1.10041C10.4772 0.968999 10.3713 0.859367 10.2425 0.783084C10.1137 0.7068 9.96675 0.666693 9.81705 0.666994Z" fill="white"/>
</svg>
