<svg width="145" height="40" viewBox="0 0 145 40" fill="none" xmlns="http://www.w3.org/2000/svg">
<path d="M7.20732 4.55615C6.93664 4.89336 7.10582 5.31486 7.52876 5.31486C7.71485 5.31486 7.96861 5.4666 8.12087 5.66893C8.39155 6.07357 8.30696 6.42764 7.52876 8.14737C7.25808 8.72062 7.03815 9.26015 7.03815 9.34445C7.03815 9.42875 6.91972 9.74909 6.76747 10.0694C6.1246 11.3508 6.0231 11.5869 6.0231 11.8398C6.0231 11.9746 5.92159 12.295 5.78625 12.531C5.65091 12.7839 5.43098 13.3235 5.26181 13.745C5.10955 14.1665 4.87271 14.7228 4.73737 14.9758C4.60203 15.2455 4.50052 15.5659 4.50052 15.7176C4.50052 15.8525 4.39902 16.1728 4.28059 16.4089C4.14525 16.6618 3.92533 17.117 3.77307 17.4205C3.62081 17.7408 3.48547 18.0612 3.48547 18.1623C3.48547 18.3478 3.09637 19.2751 2.70726 20.0338C2.57192 20.3036 2.47042 20.5902 2.47042 20.6914C2.47042 21.0286 1.26928 22.3437 0.964761 22.3437C0.795585 22.3437 0.55874 22.4617 0.440318 22.6134C0.000462383 23.1192 0.55874 23.271 2.60576 23.2204C4.24676 23.1698 4.50052 23.1361 4.50052 22.8832C4.50052 22.7314 4.26368 22.4617 3.993 22.3099C3.57006 22.0739 3.48547 21.9221 3.48547 21.3995C3.48547 20.86 3.77307 20.0001 4.31443 18.9716C4.39902 18.8199 4.51744 18.4658 4.56819 18.1623C4.63586 17.8757 4.7712 17.5722 4.87271 17.5216C4.95729 17.4542 5.95543 17.3868 7.05506 17.3699L9.06825 17.3193V19.3425C9.06825 21.9727 8.79757 22.4954 7.41033 22.5123C7.12273 22.5123 7.02123 22.5966 7.07198 22.7989C7.12274 23.0686 7.39342 23.1024 9.66036 23.1024C11.0645 23.1192 12.3502 23.1698 12.5533 23.2372C12.7901 23.3215 12.9762 23.271 13.1115 23.1192C13.3822 22.7989 13.213 22.5123 12.7393 22.5123C12.5363 22.5123 12.1811 22.3605 11.9442 22.175L11.5213 21.8547L11.4875 13.374C11.4705 8.70376 11.4536 4.80906 11.4367 4.69104C11.4367 4.55615 11.0138 4.50557 10.0495 4.52243C9.27126 4.53929 8.37463 4.50557 8.03628 4.42127C7.57951 4.33697 7.3765 4.35383 7.20732 4.55615ZM9.10208 7.70901C9.15284 7.82703 9.15284 9.85025 9.10208 12.177L9.0175 16.4426H7.27499C6.32761 16.4426 5.49865 16.3751 5.4479 16.3077C5.36331 16.1728 5.68475 15.3635 6.29378 14.2002C6.42912 13.9304 6.53062 13.6438 6.53062 13.5426C6.53062 13.4583 6.63213 13.138 6.76747 12.8514C6.88589 12.5479 7.12274 11.9746 7.29191 11.5531C7.44417 11.1316 7.68101 10.5415 7.81635 10.238C7.95169 9.93455 8.0532 9.58049 8.0532 9.46247C8.0532 9.32759 8.17162 9.00724 8.30696 8.75434C8.4423 8.48458 8.56072 8.14737 8.56072 7.99563C8.56072 7.52355 8.96674 7.32123 9.10208 7.70901ZM91.2874 4.7922C91.2874 5.2137 91.355 5.31486 91.6765 5.31486C91.8795 5.31486 92.2347 5.4666 92.4716 5.65207L92.8945 5.97241V21.8716L92.4885 22.1919C92.2686 22.3774 91.9641 22.4785 91.8118 22.428C91.6595 22.3942 91.4227 22.428 91.2874 22.5123C90.9321 22.7314 91.3043 23.2878 91.7272 23.2204C91.9133 23.1867 93.2498 23.1529 94.7216 23.1529C97.1408 23.1529 97.3777 23.1192 97.3777 22.8495C97.3777 22.6303 97.1916 22.5291 96.684 22.4448C95.6182 22.2762 95.4829 21.7535 95.4491 18.0443L95.4321 15.0095L97.3777 14.9589C99.3063 14.9083 99.3232 14.9083 99.8645 14.3856L100.423 13.8461V9.79967C100.406 5.85439 100.406 5.71951 100.034 5.298C99.4247 4.57301 98.6634 4.43813 95.7197 4.50557C94.2648 4.52243 92.6577 4.48871 92.184 4.42127L91.2874 4.26953V4.7922ZM97.8852 5.63521C98.0882 6.02299 98.122 13.5426 97.919 13.863C97.716 14.1665 95.9228 14.3519 95.6013 14.0822C95.3814 13.9136 95.3476 13.2223 95.3476 9.69851C95.3476 6.51194 95.3983 5.48346 95.5675 5.43288C95.669 5.3823 96.2104 5.33172 96.7348 5.33172C97.5299 5.31486 97.7329 5.3823 97.8852 5.63521ZM79.8173 7.65843C79.2083 7.99563 78.8022 8.48458 78.3624 9.32759C77.9394 10.1369 77.9394 12.8345 78.3624 13.7955C78.8192 14.8577 79.6819 15.8525 80.7647 16.5606C82.2872 17.5722 83.2854 18.6176 83.4207 19.3594C83.6068 20.3036 83.2346 21.4163 82.541 22.0064C81.7628 22.6977 81.0692 22.6809 80.291 21.9559C79.5635 21.2815 79.2083 20.5565 78.9376 19.2245C78.7007 18.0106 78.5485 17.7071 78.2439 17.7071C78.0071 17.7071 78.0071 17.9937 78.0917 23.1361C78.0917 23.507 78.43 23.3721 78.5992 22.9338C78.7853 22.4448 78.9545 22.4111 79.5804 22.7483C79.8342 22.8832 80.3248 23.1192 80.6632 23.2878C82.338 24.0297 84.8418 22.5123 85.3324 20.4553C85.7046 18.8536 85.5692 17.7577 84.8756 16.3077C84.5034 15.5321 83.3192 14.3013 82.6256 13.981C80.3925 12.9525 79.4958 11.6037 79.9526 9.90083C80.2571 8.80492 80.697 8.3497 81.4752 8.3497C81.932 8.3497 82.2534 8.48458 82.6087 8.80492C83.4546 9.59735 83.6914 10.1032 83.979 11.806C84.0636 12.3287 84.1651 12.4804 84.4358 12.4804C84.7572 12.4804 84.7741 12.3624 84.7741 10.1369C84.7741 8.6026 84.7064 7.70901 84.5711 7.52355C84.4019 7.2875 84.3512 7.30437 84.1989 7.70901C83.979 8.29912 83.7083 8.434 83.37 8.14737C82.3042 7.2875 80.8493 7.10204 79.8173 7.65843ZM111.673 7.45611C109.727 7.84389 109.085 8.19796 108.442 9.22643L108.019 9.88397V20.978L108.425 21.6187C109.355 23.0855 111.368 23.8273 112.891 23.2541C113.974 22.8663 114.752 22.1245 115.243 21.0117C115.598 20.2361 115.649 19.8483 115.649 18.196C115.649 16.4594 115.682 16.2571 115.987 16.0717C116.308 15.8693 116.461 15.4478 116.207 15.4141C115.97 15.3973 113.212 15.3973 112.993 15.4141C112.637 15.4478 112.739 15.785 113.196 16.1391C113.618 16.4594 113.618 16.4932 113.618 18.9379C113.602 21.2646 113.585 21.4501 113.229 21.8884C112.806 22.3942 111.927 22.6303 111.182 22.4448C110.962 22.3942 110.607 22.0907 110.421 21.7704C110.083 21.2309 110.066 20.9948 110.066 15.3973V9.59735L110.59 9.05782C111.284 8.3497 111.791 8.23168 112.603 8.6026C113.788 9.14213 114.464 10.2043 114.464 11.57C114.464 12.2781 114.752 12.5985 115.259 12.4636C115.615 12.3624 115.632 12.295 115.581 10.12C115.547 8.88922 115.479 7.79331 115.412 7.69215C115.259 7.45611 114.837 7.64157 114.718 8.02935C114.6 8.40028 114.177 8.45086 113.805 8.11365C113.568 7.91133 113.179 7.75959 112.265 7.45611C112.13 7.42239 111.859 7.40553 111.673 7.45611ZM14.871 7.79331C13.636 7.82703 12.6209 7.91133 12.6209 7.97877C12.6209 8.04621 12.9593 8.40028 13.3822 8.73748L14.1435 9.37817V15.1949C14.1435 21.4838 14.1266 21.3995 15.074 22.4785C15.9368 23.4733 18.5928 23.8779 19.9293 23.2204C21.5534 22.4448 21.7733 21.3489 21.7395 14.4531L21.7225 9.15899L22.3316 8.65318C22.7545 8.31598 22.9068 8.07993 22.8053 7.97877C22.6361 7.81017 19.8447 7.67529 19.4387 7.81017C19.1849 7.89447 19.1342 8.3497 19.3879 8.3497C19.4725 8.3497 19.8109 8.58574 20.1492 8.87236L20.7582 9.41189L20.7075 15.1612C20.6567 20.1518 20.6229 20.978 20.3691 21.4332C20.0139 22.0907 19.4218 22.3437 18.3221 22.3437C17.1379 22.3268 16.7319 22.0064 16.512 20.8431C16.2751 19.5954 16.292 10.238 16.5289 9.56363C16.6304 9.26015 16.9687 8.87236 17.2902 8.67004C17.933 8.28226 18.0176 7.75959 17.4424 7.75959C17.2563 7.74273 16.089 7.77645 14.871 7.79331ZM33.7171 7.89447C33.5141 8.02935 33.7847 8.31598 34.6306 8.87236L35.0366 9.14213L35.0874 14.8577C35.1212 18.0106 35.0874 20.8768 35.0366 21.2646C34.952 21.8547 34.8336 22.0064 34.2584 22.3268C33.0234 23.0181 33.3956 23.1024 37.828 23.1024H41.939L42.1758 22.2593C42.548 20.9948 42.6326 20.1518 42.3957 20.1518C42.0066 20.1518 41.5499 20.5059 41.5499 20.8094C41.5499 21.1972 40.9239 21.8884 40.3149 22.1413C40.0611 22.2594 39.3844 22.3437 38.8431 22.3437C37.3882 22.3437 37.3543 22.2425 37.3374 18.7862C37.3205 15.7176 37.3374 15.667 38.2848 15.9199C38.6739 16.0211 38.8092 16.2065 39.0968 17.0496C39.3506 17.7914 39.5198 18.0443 39.7566 18.0443C40.0611 18.0443 40.078 17.8757 40.078 15.431C40.078 12.9862 40.0611 12.8176 39.7566 12.8176C39.5198 12.8176 39.3506 13.0705 39.0968 13.8124C38.8092 14.6723 38.6739 14.8409 38.251 14.9589C37.9803 15.0263 37.6419 15.0601 37.5404 15.0095C37.219 14.9083 37.2697 9.10841 37.5743 8.8555C37.7096 8.73748 38.2002 8.72062 38.9446 8.78806C40.3149 8.9398 41.0423 9.47933 41.0423 10.3561C41.0423 10.8281 41.0931 10.8787 41.5499 10.8787H42.0574L42.0236 9.42875C42.0066 8.61946 41.9051 7.94505 41.8036 7.91133C41.4484 7.79331 33.8862 7.75959 33.7171 7.89447ZM43.1401 7.89447C43.0048 8.2654 43.1909 8.5183 43.58 8.5183C43.7661 8.5183 44.0367 8.72062 44.2059 8.97352C44.4766 9.39503 44.5104 9.9177 44.4428 15.4141C44.392 21.8884 44.3413 22.2256 43.4954 22.4448C43.2247 22.5123 43.0724 22.664 43.0724 22.8663C43.0724 23.1529 43.2247 23.1867 44.8319 23.1867C46.2868 23.1867 46.6082 23.1361 46.6928 22.9169C46.7605 22.7314 46.642 22.5966 46.3037 22.4617C45.3732 22.1245 45.3056 21.6355 45.221 15.9368C45.1871 13.1043 45.1871 10.6595 45.2379 10.4909C45.3225 10.1032 45.6101 10.3055 45.6101 10.7607C45.6101 10.963 45.7285 11.3508 45.8638 11.6206C45.9992 11.8735 46.1176 12.2781 46.1176 12.4804C46.1176 12.6828 46.236 13.2729 46.3883 13.7618C46.5236 14.2676 46.7435 15.0432 46.862 15.5153C46.9973 15.9705 47.2172 16.7798 47.3526 17.2856C47.5048 17.7914 47.6571 18.3984 47.7078 18.6344C47.7417 18.8705 47.8601 19.2751 47.9447 19.5617C48.2154 20.3373 48.5368 21.6861 48.6214 22.3942C48.706 23.1024 48.8582 23.2541 49.3319 23.1024C49.5688 23.0181 49.6703 22.8495 49.6703 22.4785C49.6703 21.9896 49.9748 20.7588 50.3808 19.5617C50.4654 19.2751 50.6177 18.7693 50.7022 18.4152C50.7868 18.0612 50.9222 17.6565 51.0068 17.4879C51.0913 17.3362 51.2436 16.8641 51.3451 16.4426C51.4466 16.0211 51.6665 15.2624 51.8019 14.7566C51.9541 14.2508 52.1402 13.5595 52.2079 13.2392C52.2756 12.9188 52.4617 12.1938 52.6139 11.6543C53.206 9.47933 53.2906 10.0526 53.2399 16.0548C53.206 21.0117 53.1722 21.4332 52.8677 21.8547C52.6985 22.1076 52.3602 22.3605 52.1233 22.4111C51.8696 22.4785 51.7004 22.6303 51.7004 22.8326C51.7004 23.1024 51.9034 23.1361 54.238 23.1192C56.4711 23.1192 56.7756 23.0855 56.7756 22.8495C56.7756 22.6977 56.5895 22.4785 56.3696 22.3774C55.4053 21.939 55.3884 21.8547 55.3884 15.549C55.3884 11.5026 55.4561 9.64793 55.5914 9.34445C55.7098 9.09155 56.0651 8.7712 56.3865 8.61946C56.7756 8.434 56.9448 8.24854 56.911 8.04621C56.8602 7.79331 56.6572 7.75959 54.9993 7.82703C53.9673 7.86075 53.0369 7.96191 52.9354 8.04621C52.8169 8.14737 52.7154 8.41714 52.7154 8.63632C52.7154 9.0241 52.4786 9.86711 51.9541 11.3845C51.8357 11.7049 51.6158 12.4299 51.4466 12.9862C51.2774 13.5426 51.0575 14.3351 50.9222 14.7566C50.8037 15.1781 50.55 16.0717 50.3808 16.7629C50.0425 18.1117 49.7549 18.4489 49.5857 17.6734C49.518 17.4205 49.3996 17.0327 49.315 16.8135C49.2304 16.5943 49.1628 16.2234 49.1628 15.9705C49.1628 15.7176 49.0612 15.1781 48.9259 14.7566C48.6891 14.0147 48.3676 12.8682 47.8939 11.1316C47.7755 10.6595 47.5556 9.86711 47.4033 9.34445C47.2511 8.82178 47.1326 8.28226 47.1326 8.13051C47.1326 7.87761 46.9296 7.84389 45.7116 7.84389C44.9334 7.84389 44.0706 7.79331 43.7661 7.74273C43.377 7.65843 43.2247 7.70901 43.1401 7.89447ZM60.4636 7.77645C60.2099 8.01249 60.3283 8.2654 60.8358 8.55202C61.4279 8.88922 61.4618 9.19271 61.0727 10.4404C60.4298 12.531 60.3283 12.8851 60.3283 13.1549C60.3283 13.3235 60.2268 13.8461 60.0915 14.3182C59.6854 15.7682 59.3133 17.5216 59.3133 17.9263C59.3133 18.1455 59.2118 18.5164 59.0764 18.7693C58.958 19.0222 58.8057 19.5954 58.7381 20.0675C58.5858 21.2477 58.1459 22.3099 57.7568 22.4448C57.5708 22.4954 57.4523 22.664 57.4862 22.8157C57.5369 23.0518 57.7907 23.1192 58.9411 23.1529C60.2437 23.2035 60.3283 23.1867 60.3283 22.8495C60.3283 22.664 60.2268 22.5123 60.0915 22.5123C59.567 22.5123 59.2794 21.9896 59.3978 21.2646C59.4486 20.8768 59.567 20.5059 59.6685 20.4216C59.7531 20.3204 59.8208 19.9664 59.8208 19.6292C59.8208 18.6176 60.1253 18.4489 61.834 18.4995L63.2889 18.5501L63.3904 19.4774C63.4411 20.0001 63.5765 20.5733 63.678 20.7757C63.7964 20.978 63.881 21.3826 63.881 21.6692C63.881 22.1076 63.7964 22.2425 63.3735 22.3942C63.0859 22.4954 62.8659 22.7146 62.8659 22.8663C62.8659 23.1192 63.0859 23.1529 64.8453 23.1361C66.1141 23.1192 66.8416 23.0349 66.8754 22.9169C66.9092 22.8157 66.7062 22.4785 66.4186 22.175C66.0633 21.8041 65.9111 21.4669 65.9111 21.0791C65.9111 20.7757 65.7927 20.2024 65.6573 19.8146C65.522 19.4268 65.4036 18.8536 65.4036 18.5501C65.4036 18.2466 65.2851 17.6734 65.1498 17.2856C65.0145 16.8978 64.896 16.3246 64.896 16.0211C64.896 15.7176 64.7776 15.1444 64.6423 14.7566C64.5069 14.3688 64.3885 13.7787 64.3885 13.4583C64.3885 13.1549 64.2701 12.6153 64.1347 12.2781C63.9994 11.9578 63.881 11.4351 63.881 11.1316C63.881 10.8281 63.7626 10.2549 63.6272 9.86711C63.4919 9.47933 63.3735 8.8555 63.3735 8.50144V7.84389H62.5783C62.1216 7.84389 61.4956 7.79331 61.1742 7.74273C60.8527 7.69215 60.5313 7.70901 60.4636 7.77645ZM62.0708 12.5142C62.2062 13.1548 62.3753 14.1327 62.4261 14.7228C62.4768 15.313 62.5953 15.9199 62.6968 16.1054C62.7813 16.274 62.8659 16.7292 62.8659 17.1001V17.7745L61.7494 17.724C60.3114 17.6565 60.193 17.5216 60.5482 16.392C60.7005 15.8862 60.8358 15.3298 60.8358 15.1275C60.8358 14.9252 60.9543 14.3351 61.0896 13.7955C61.2249 13.2729 61.3434 12.5479 61.3434 12.2275C61.3434 11.6206 61.4449 11.3845 61.6817 11.3845C61.7494 11.3845 61.9186 11.8903 62.0708 12.5142ZM67.3322 7.87761C67.1968 8.09679 67.4506 8.45086 67.9073 8.65318C68.7363 9.00724 68.804 9.49619 68.804 15.5827C68.8209 21.6187 68.7701 21.9559 67.8566 22.3774C67.6198 22.4785 67.4337 22.6809 67.4337 22.8326C67.4337 23.0686 67.7551 23.1024 69.9713 23.1192C72.289 23.1361 72.5089 23.1024 72.5089 22.8326C72.5089 22.6471 72.3397 22.4954 72.0521 22.428C71.1555 22.2256 71.0371 21.8378 70.9694 18.803L70.9018 16.0211H71.3078C71.5277 16.0211 71.7645 16.1391 71.8491 16.274C72.2044 16.9315 72.5089 17.6902 72.5089 17.8926C72.5089 18.1286 72.8642 19.0053 73.2871 19.8652C73.4225 20.135 73.524 20.4722 73.524 20.6239C73.524 20.7757 73.6424 21.0623 73.7777 21.2309C73.9131 21.4163 74.0315 21.7198 74.0315 21.9053C74.0484 22.1076 74.2007 22.4448 74.3868 22.6809C74.6913 23.0349 74.9112 23.1024 75.9093 23.1529C77.009 23.2204 77.0766 23.2035 77.0766 22.8663C77.0766 22.6809 76.9921 22.5123 76.9075 22.5123C76.806 22.5123 76.6537 22.3437 76.5691 22.1245C76.4676 21.9221 76.3323 21.6355 76.2646 21.5006C75.8078 20.6914 75.5541 20.0844 75.5541 19.8146C75.5541 19.6629 75.4356 19.4268 75.3003 19.3088C75.165 19.1908 75.0465 18.921 75.0465 18.7187C75.0465 18.5164 74.9281 18.2466 74.7928 18.1286C74.6574 18.0106 74.539 17.8083 74.539 17.6565C74.539 17.5216 74.3868 17.1507 74.1837 16.8304C73.7608 16.1728 73.8454 15.8356 74.4883 15.5659C75.571 15.1106 75.5541 15.1444 75.5541 11.8735V8.88922L75.0296 8.45086C74.742 8.21481 74.3529 7.97877 74.1499 7.92819C73.5578 7.81017 67.3998 7.74273 67.3322 7.87761ZM73.2702 9.0241C73.4901 9.20957 73.524 9.66479 73.4901 11.9578L73.4394 14.6554L72.8642 15.0432C72.5089 15.2792 72.0352 15.431 71.6461 15.431H70.9863V12.1601C70.9863 9.69851 71.0371 8.8555 71.2063 8.78806C71.5615 8.63632 72.9826 8.78806 73.2702 9.0241ZM101.81 7.94505C101.59 8.11365 101.658 8.21482 102.25 8.6026C102.825 8.99038 102.96 9.17585 103.045 9.76595C103.096 10.1369 103.113 12.9862 103.096 16.0885L103.028 21.703L102.571 22.1076C102.301 22.3268 101.979 22.5123 101.844 22.5123C101.692 22.5123 101.607 22.6303 101.641 22.7989C101.692 23.0686 101.945 23.1024 104.145 23.1024C106.209 23.1024 106.598 23.0686 106.648 22.8495C106.665 22.6977 106.496 22.5123 106.175 22.3942C105.887 22.2931 105.6 22.0064 105.498 21.7535C105.278 21.1803 105.278 9.86711 105.498 9.29387C105.583 9.05782 105.887 8.75434 106.175 8.6026C106.496 8.434 106.682 8.21481 106.648 8.06307C106.598 7.82703 106.276 7.79331 104.331 7.77645C102.91 7.75959 101.962 7.82703 101.81 7.94505ZM116.647 7.96191C116.528 8.07993 116.647 8.2654 117.002 8.5183C118 9.22643 118.017 9.32759 118.017 15.2118C118.017 18.1623 118.068 20.8431 118.119 21.1803C118.186 21.5344 118.457 22.0402 118.761 22.3605C119.557 23.2204 120.352 23.5239 121.874 23.5239C123.515 23.5239 124.344 23.1024 124.919 22.0233C125.292 21.3152 125.292 21.1972 125.308 15.4647C125.308 9.73223 125.325 9.59735 125.681 9.07468C125.884 8.7712 126.239 8.45086 126.459 8.3497C126.713 8.23168 126.814 8.11365 126.713 8.01249C126.476 7.77645 123.278 7.69215 123.143 7.91133C123.075 7.99563 123.329 8.33284 123.701 8.65318L124.361 9.20957V14.9758C124.361 18.1455 124.31 20.9611 124.226 21.214C124.04 21.8884 123.194 22.3437 122.111 22.3437C121.316 22.3437 121.13 22.2762 120.707 21.821L120.216 21.2983V9.24329L120.978 8.70376C121.79 8.13051 121.925 7.84389 121.451 7.82703C118.964 7.74273 116.782 7.79331 116.647 7.96191ZM127.322 7.81017C127 7.92819 127.152 8.2654 127.677 8.6026C127.965 8.78806 128.269 9.10841 128.354 9.32759C128.523 9.74909 128.574 20.6408 128.404 21.4501C128.337 21.821 128.117 22.0739 127.626 22.3437C126.408 23.0181 126.78 23.1024 131.213 23.1024H135.341L135.459 22.5966C135.527 22.3099 135.696 21.7873 135.865 21.4332C136.085 20.9105 136.102 20.6745 135.966 20.371C135.797 19.9832 135.763 19.9832 135.357 20.253C135.121 20.4047 134.935 20.6576 134.935 20.8094C134.918 21.2309 134.224 21.939 133.598 22.1582C132.803 22.4111 131.517 22.3942 131.111 22.1076C130.824 21.8884 130.79 21.6018 130.739 18.921C130.688 15.7007 130.688 15.667 131.669 15.9199C132.059 16.0211 132.194 16.2065 132.481 17.0496C132.735 17.7914 132.904 18.0443 133.141 18.0443C133.446 18.0443 133.463 17.8757 133.463 15.431C133.463 12.9862 133.446 12.8176 133.141 12.8176C132.904 12.8176 132.735 13.0705 132.481 13.8124C132.194 14.6723 132.059 14.8409 131.636 14.9589C131.365 15.0263 131.027 15.0601 130.908 15.0095C130.621 14.9083 130.637 9.34445 130.942 8.9398C131.111 8.72062 131.331 8.6869 132.312 8.78806C133.716 8.9398 134.427 9.46247 134.427 10.3729C134.427 10.845 134.478 10.8956 134.901 10.845L135.357 10.7944L135.307 9.44561C135.273 8.70376 135.188 8.04621 135.138 7.97877C135.019 7.86075 127.643 7.70901 127.322 7.81017ZM23.279 7.94505C23.279 8.01249 23.6173 8.3497 24.0402 8.72062L24.8015 9.39503V15.4816C24.7846 21.1466 24.7677 21.6187 24.4801 21.9559C24.3109 22.1582 23.9726 22.3774 23.7188 22.4448C23.4143 22.5123 23.279 22.6471 23.3128 22.8326C23.3635 23.0686 23.7865 23.1024 27.0685 23.1024H30.7565L31.484 22.3099C33.0573 20.5733 33.5986 16.6449 32.9389 11.7217C32.6851 9.81653 32.1099 8.73748 31.0441 8.19795C30.4351 7.87761 30.0798 7.84389 26.8316 7.84389C24.8692 7.84389 23.279 7.89447 23.279 7.94505ZM29.9106 9.14213C30.4858 9.66479 30.7734 10.4066 30.9933 11.9746C31.264 13.863 31.2809 16.156 31.0441 18.5501C30.8411 20.6071 30.4689 21.5175 29.6399 22.0233C29.0478 22.3942 27.5253 22.4617 27.2038 22.1413C27.0516 21.9896 27.0008 20.3204 27.0008 15.6502C27.0008 9.46247 27.0008 9.36131 27.3561 9.00724C27.6775 8.6869 27.8467 8.65318 28.6418 8.73748C29.1832 8.78806 29.7076 8.95666 29.9106 9.14213ZM136.237 7.96191C136.186 8.04621 136.119 8.70376 136.102 9.44561L136.034 10.7944L136.508 10.845C136.931 10.8956 136.965 10.8619 136.965 10.238C136.965 9.37817 137.489 8.87236 138.436 8.82178C138.809 8.82178 139.198 8.8555 139.299 8.92294C139.452 9.00724 139.502 10.6933 139.502 15.0938C139.502 20.8768 139.485 21.1634 139.164 21.7198C138.961 22.0402 138.623 22.3605 138.403 22.4111C138.149 22.4785 137.98 22.6471 137.98 22.8326C137.98 23.1024 138.183 23.1361 140.517 23.1361C142.869 23.1361 143.055 23.1024 143.055 22.8157C143.055 22.6471 142.937 22.5123 142.784 22.5123C142.649 22.5123 142.311 22.2594 142.023 21.9727L141.532 21.4332V15.1444C141.532 9.32759 141.549 8.87236 141.837 8.78806C142.091 8.70376 143.359 8.90608 143.461 9.05782C143.884 9.61421 144.07 10.0357 144.07 10.4235C144.07 10.845 144.121 10.8956 144.544 10.845L145 10.7944L144.933 9.44561C144.899 8.70376 144.848 8.04621 144.797 7.96191C144.764 7.89447 142.835 7.84389 140.517 7.84389C138.2 7.84389 136.271 7.89447 136.237 7.96191ZM53.6797 28.6494C53.629 28.7842 53.7305 28.9866 53.9335 29.1214C54.2718 29.3406 54.2718 29.3912 54.035 29.9476C53.8997 30.2511 53.6459 30.9761 53.4767 31.5325C52.7831 33.8929 52.5124 34.483 52.0895 34.5841C51.8357 34.6516 51.7004 34.7865 51.7342 34.9551C51.785 35.1743 52.1402 35.2248 54.0519 35.2248C56.285 35.2417 56.3189 35.2417 56.6234 34.8202C57.3001 33.8929 56.9448 33.2522 56.2004 34.0615C55.879 34.3987 55.5745 34.5336 54.847 34.601C53.6966 34.719 53.5275 34.483 53.9335 33.3196C54.0857 32.8981 54.2549 32.2912 54.3226 32.0045C54.3903 31.7011 54.5087 31.4144 54.5933 31.3639C54.6779 31.2964 54.7455 31.0941 54.7455 30.8918C54.7624 30.2005 55.3715 29.1214 55.7944 29.054C55.9974 29.0203 56.1835 28.8854 56.1835 28.7505C56.1835 28.3796 53.8151 28.2784 53.6797 28.6494ZM66.4186 28.5819C66.1987 28.7337 66.2325 28.8011 66.5709 29.0709C66.9769 29.3912 66.9769 29.3912 66.7231 30.1162C66.5709 30.5208 66.4017 31.1109 66.334 31.3976C66.2664 31.7011 66.1479 31.9877 66.0633 32.0383C65.9788 32.1057 65.9111 32.3417 65.9111 32.5946C65.9111 32.8475 65.7927 33.2691 65.6573 33.5388C65.522 33.7917 65.4036 34.1121 65.4036 34.2301C65.4036 34.3481 65.1836 34.5336 64.896 34.6347C64.3885 34.8033 64.2024 35.1405 64.6084 35.1743C64.7099 35.1911 65.5389 35.208 66.4186 35.2248C68.2288 35.2586 69.0239 34.9888 69.6329 34.1458C70.039 33.5894 70.0728 32.5946 69.7175 32.2912C69.3284 31.954 69.413 31.465 69.9713 30.9929C70.6987 30.386 70.6818 29.4587 69.9544 28.8517C69.4976 28.4639 69.2946 28.4133 68.0596 28.4133C67.2983 28.4133 66.554 28.4976 66.4186 28.5819ZM69.413 29.7621C69.4807 30.5714 69.0239 31.0772 68.178 31.1447C67.6028 31.1952 67.5182 31.1447 67.4675 30.8243C67.4337 30.622 67.569 30.1499 67.772 29.7621C68.1104 29.1214 68.178 29.0709 68.7532 29.1214C69.3284 29.172 69.3792 29.2057 69.413 29.7621ZM68.2795 31.9034C68.8547 32.2912 68.9562 32.4598 68.9562 33.0667C68.9562 33.8086 68.0089 34.6516 67.163 34.6516C66.8077 34.6516 66.537 34.5504 66.4863 34.3987C66.4017 34.1795 66.6555 33.2185 67.1122 31.9877C67.2814 31.5493 67.7043 31.5156 68.2795 31.9034ZM77.9902 30.858C77.9056 31.0604 77.7533 31.1109 77.4657 31.0266C76.586 30.8075 74.8266 32.5609 74.3529 34.1121C73.9807 35.3429 74.7589 35.7306 75.7571 34.8202L76.3154 34.2975L76.5353 34.8202C76.789 35.4609 77.1951 35.4609 77.8887 34.8539C78.5485 34.2638 78.5654 34.1458 78.0071 34.1458C77.4488 34.1458 77.4657 33.8592 78.0917 32.5103C78.3793 31.8865 78.6331 31.2458 78.65 31.0435C78.6838 30.622 78.1424 30.4534 77.9902 30.858ZM77.415 31.954C77.415 32.5272 76.4338 33.8929 75.7402 34.2807C75.1988 34.601 75.1311 34.4493 75.4695 33.5894C76.0108 32.1731 77.415 30.9929 77.415 31.954ZM59.7193 31.1109C59.0257 31.3807 57.7907 33.3702 57.7907 34.1964C57.7907 34.7865 58.3828 35.326 59.0426 35.326C59.7362 35.326 60.7512 34.3987 60.2606 34.2132C60.0915 34.1458 59.8885 34.1795 59.77 34.2975C59.6685 34.3987 59.4148 34.483 59.1948 34.483C58.8903 34.483 58.8057 34.3818 58.8057 34.0783C58.8057 33.3534 58.9749 33.1342 59.567 33.1342C59.8715 33.1342 60.2099 33.0161 60.3283 32.8813C60.4467 32.7464 60.6159 32.6284 60.7174 32.6284C60.9035 32.6284 61.5125 31.9708 61.5125 31.7516C61.5125 31.6673 61.4279 31.4482 61.3434 31.2627C61.1573 30.9255 60.3791 30.8412 59.7193 31.1109ZM60.3283 31.8359C60.3283 32.1563 59.7024 32.6789 59.4994 32.5441C59.3809 32.4766 59.4148 32.308 59.6009 32.0383C59.9392 31.583 60.3283 31.4819 60.3283 31.8359ZM71.4939 31.4482L71.1386 31.954H71.4939C71.9845 31.954 72.1029 32.4092 71.7984 33.033C71.1217 34.3818 70.9356 35.0057 71.1048 35.1743C71.3247 35.3934 72.0014 35.208 72.0014 34.9382C72.0014 34.8202 72.2382 34.2807 72.5089 33.7243C72.7796 33.1679 73.0164 32.6284 73.0164 32.5103C73.0164 32.2743 73.6424 32.0383 74.1668 32.1057C74.5221 32.1394 74.5559 32.0888 74.5052 31.583C74.4713 31.1447 74.3698 31.0098 74.0653 30.9761C73.8285 30.9423 73.5747 31.0435 73.4563 31.2121C73.2533 31.4819 73.2025 31.4819 72.8303 31.229C72.2551 30.8243 71.8999 30.8749 71.4939 31.4482ZM80.2233 31.465C79.6989 32.0888 79.6819 32.3586 80.1218 33.2185C80.5955 34.1289 80.5617 34.483 80.0372 34.483C79.8004 34.483 79.6143 34.3987 79.6143 34.3144C79.6143 33.9772 79.1406 34.1458 79.056 34.5167C78.8192 35.4272 80.0034 35.6295 80.8154 34.8371C81.4075 34.2469 81.4244 33.8423 80.9508 32.8644C80.5109 32.0045 80.6124 31.4987 81.1538 31.8022C81.5936 32.0383 82.0504 31.6673 81.8812 31.229C81.6951 30.7232 80.7308 30.858 80.2233 31.465ZM83.37 31.3639C82.8117 32.072 82.7778 32.4092 83.15 33.1848C83.5899 34.0952 83.6068 34.483 83.1839 34.483C82.9978 34.483 82.7948 34.3987 82.744 34.3144C82.5579 34.0109 82.2027 34.1289 82.1012 34.5167C81.8643 35.3934 83.0654 35.6463 83.8775 34.8708C84.4527 34.3144 84.4865 33.6568 83.9959 32.7295C83.5561 31.8865 83.6406 31.6842 84.4188 31.7516C84.994 31.8022 85.0448 31.7854 84.994 31.4144C84.9602 31.0941 84.8249 31.0098 84.3343 30.9761C83.8267 30.9423 83.6406 31.0098 83.37 31.3639ZM86.6012 31.2796C86.432 31.465 86.2121 31.6168 86.1106 31.6168C85.8568 31.6168 85.6707 32.0888 85.8737 32.2069C85.9753 32.2743 86.1275 32.2574 86.2121 32.2069C86.5674 31.9877 86.7196 32.308 86.4828 32.7632C85.9922 33.6906 85.6707 34.6179 85.7384 34.9214C85.8399 35.5283 86.4997 35.3934 87.2441 34.6347C87.7178 34.1458 87.9715 33.9772 88.1069 34.1121C88.2253 34.2301 88.2253 34.3818 88.0899 34.6179C87.9546 34.8708 87.9715 35.0057 88.1576 35.1574C88.5467 35.4777 89.4264 35.0057 89.8663 34.2132C90.0524 33.9097 90.0185 33.876 89.5787 33.9435C89.1219 34.0109 89.105 33.994 89.2403 33.522C89.3249 33.2353 89.5787 32.6284 89.7986 32.1563C90.1539 31.4313 90.1877 31.2458 90.0016 31.0941C89.6294 30.7906 89.3757 31.0098 88.7836 32.1394C88.1069 33.4377 87.9546 33.6737 87.3625 34.0446C86.7027 34.483 86.6858 34.1121 87.3287 32.6452C87.6332 31.954 87.8362 31.2964 87.7854 31.1615C87.6501 30.8243 86.9226 30.8918 86.6012 31.2796ZM92.0148 31.0435C91.8964 31.0941 91.7949 31.2458 91.7949 31.3807C91.7949 31.5156 91.6765 31.6673 91.5411 31.7179C91.1859 31.8528 91.2197 32.426 91.6257 33.2185C91.8118 33.5894 91.9641 34.0109 91.9641 34.1795C91.9641 34.5336 91.4565 34.5841 91.152 34.2807C90.8644 33.994 90.5599 34.3312 90.6445 34.8371C90.6783 35.1574 90.8137 35.2586 91.3043 35.2923C92.5223 35.3934 93.3005 33.9603 92.5731 32.9318C92.0486 32.19 92.3701 31.4144 92.9453 31.9877C93.216 32.2574 93.5035 31.8697 93.4528 31.3639C93.419 31.1109 93.2667 31.0266 92.8099 30.9929C92.4885 30.9761 92.1163 30.9929 92.0148 31.0435Z" fill="#C2A051"/>
</svg>
