<svg width="146" height="42" viewBox="0 0 146 42" fill="none" xmlns="http://www.w3.org/2000/svg">
<path d="M31.8734 1.66411C30.6539 1.66123 29.2918 1.79972 27.8144 2.16612C27.8144 2.16612 20.2389 3.99897 11.8893 11.5999C11.8893 11.5999 7.90802 15.5352 5.08795 20.6025C5.08795 20.6025 2.15729 25.8854 1.71492 30.3058C1.71492 30.3058 1.27256 35.2653 4.14793 37.799C4.14793 37.799 7.46565 40.7639 14.7094 40.1709C14.7094 40.1709 19.2436 39.6318 24.1649 36.613C24.1649 36.613 26.5426 35.1036 28.0909 33.702C28.0909 33.702 27.372 36.2357 28.4227 38.0685C28.4227 38.0685 29.418 39.7936 31.6851 40.1709C31.6851 40.1709 33.3439 40.4944 35.7217 39.6318C35.7217 39.6318 37.2146 38.9849 38.21 38.4998C38.21 38.4998 40.2559 37.4216 42.2465 35.9122C42.2465 35.9122 41.8595 37.4216 42.7442 38.7154C42.7442 38.7154 43.7948 40.1709 45.7301 40.3326C45.7301 40.3326 50.9279 40.71 58.1716 32.0309L53.0844 40.0092L57.7293 39.9553L61.7658 33.1629C61.7658 33.1629 65.9683 26.155 66.853 25.2924C66.853 25.2924 69.0096 22.4893 72.272 21.8424L74.4285 22.0041C74.4285 22.0041 75.3132 22.4353 75.3132 23.4057L73.7097 23.1361C73.7097 23.1361 72.7696 23.244 72.272 24.2143C72.272 24.2143 71.8296 25.1307 72.0508 26.0471C72.0508 26.0471 72.3273 26.8019 73.0461 27.0714L73.5438 27.2331L75.1474 27.0175C75.1474 27.0175 77.9674 25.9932 81.8381 21.2494L80.9534 22.8127L77.6909 28.2574L73.8756 34.8341C73.8756 34.8341 72.7696 36.9904 73.2673 38.2841C73.2673 38.2841 73.765 39.524 75.4238 39.8475L79.018 39.5779C79.018 39.5779 81.064 38.9849 82.7228 37.5834L85.1005 35.6966C85.1005 35.6966 87.9759 33.3247 90.5748 30.5215L90.4089 30.7371C90.4089 30.7371 88.1418 34.7802 87.7547 36.1278C87.7547 36.1278 86.87 38.9849 88.9159 40.117L91.2383 40.3326C91.2383 40.3326 93.1737 40.0631 95.109 38.7154L98.2609 36.0739C98.2609 36.0739 100.97 33.5942 102.408 31.8152C102.408 31.8152 101.689 33.4325 101.523 34.6184C101.523 34.6184 100.97 38.392 104.565 39.9014L107.938 40.1709C107.938 40.1709 109.265 40.0631 111.311 39.3623C111.311 39.3623 116.066 37.8529 122.757 31.8692C122.757 31.8692 126.13 28.8503 128.508 26.155L120.103 39.9014H124.25L127.346 34.8341L131.328 28.5269C131.328 28.5269 133.595 25.0229 137.742 22.7588C137.742 22.7588 139.401 21.7885 140.673 21.5728C140.673 21.5728 142 21.3033 142.276 21.9502C142.276 21.9502 140.396 21.5728 139.954 23.4596C139.954 23.4596 139.511 25.3463 141.06 25.9393C141.06 25.9393 142.221 26.3167 143.161 25.6698C143.161 25.6698 143.99 25.0768 144.267 23.9448C144.267 23.9448 144.488 22.8127 143.935 22.0041C143.935 22.0041 143.271 21.0337 141.723 20.9259C141.723 20.9259 140.009 20.872 136.581 23.0822C136.581 23.0822 134.037 24.6995 132.986 25.7237L135.807 21.0337H131.604C131.604 21.0337 127.623 27.6105 120.6 33.2708C120.6 33.2708 113.744 38.7154 109.873 38.8771C109.873 38.8771 106.113 39.1467 105.726 36.3435C105.726 36.3435 105.505 34.6723 106.5 32.3004C106.5 32.3004 108.822 32.516 111.919 31.5457C111.919 31.5457 114.85 30.6293 117.283 29.0121C117.283 29.0121 119.881 27.287 120.821 25.4542C120.821 25.4542 121.927 23.4057 120.656 21.6806C120.656 21.6806 118.333 19.4704 113.301 21.5189C113.301 21.5189 108.103 23.6213 104.233 28.6347L103.237 30.0902L103.127 30.2519L100.362 33.3786L97.542 36.1278C97.542 36.1278 94.1137 39.4162 92.3996 38.4459C92.3996 38.4459 91.736 38.0146 91.736 36.9904C91.736 36.9904 91.736 35.9661 92.5101 34.7263L100.528 21.1416H96.9338C96.9338 21.1416 94.9431 24.3221 92.6207 27.3409C92.6207 27.3409 88.0865 33.2168 83.1652 36.613C83.1652 36.613 79.7922 39.1467 77.9121 38.2841C77.9121 38.2841 77.0827 37.9068 77.138 36.8826C77.138 36.8826 77.1933 35.7505 78.2992 34.1872L86.1512 21.1416L90.5195 21.0877L91.0725 20.5486H86.6488L91.3489 12.4085L87.3677 12.4625C87.3677 12.4625 84.6029 17.0446 82.5017 19.7939C82.5017 19.7939 78.631 24.7534 75.4238 26.1011C75.4238 26.1011 75.9768 25.4003 76.0321 24.3221L75.9768 23.4596C75.9768 23.4596 75.7556 22.3275 74.6497 21.7885L73.6544 21.5189L71.7743 21.6806C71.7743 21.6806 69.5625 22.1658 67.5166 23.8908L69.2307 21.0877H65.2495C65.2495 21.0877 61.6553 27.3409 56.9551 32.6778C56.9551 32.6778 50.8173 39.5779 47.4443 38.7693C47.4443 38.7693 46.449 38.2841 46.3937 37.0982C46.3937 37.0982 46.3937 35.9122 47.4443 34.2411L55.4622 21.0337L51.4809 21.0877L50.2091 23.244L49.3796 24.8073C49.3796 24.8073 49.5455 24.3221 49.3796 23.2979C49.3796 23.2979 49.0479 20.872 46.6702 20.3869L44.7901 20.2251C44.7901 20.2251 40.0347 20.1712 34.6157 24.8073C34.6157 24.8073 30.9109 28.0417 28.0909 32.9473C28.0909 32.9473 22.4507 38.0685 16.4788 39.2006C16.4788 39.2006 11.1705 40.2787 8.90334 37.9607C8.90334 37.9607 6.41504 35.481 6.41504 31.1684C6.41504 31.1684 6.47033 26.0471 10.2304 19.0931C10.2304 19.0931 14.2117 13.3789 16.6447 10.7913C16.6447 10.7913 22.8378 4.1607 29.2521 2.48956C29.2521 2.48956 34.5052 1.14188 37.4358 3.4599C37.4358 3.4599 39.9241 5.45448 40.1453 9.49754L41.583 7.12561C41.583 7.12561 43.4077 4.32242 45.0113 2.70519C45.0113 2.70519 43.5183 3.35208 41.6936 3.56771C41.6936 3.56771 39.4265 3.83725 38.3205 3.19036C38.3205 3.19036 35.8572 1.67349 31.8734 1.66411ZM45.3776 20.7137C46.9977 20.7217 47.8314 21.465 47.8314 21.465C49.7667 23.19 48.2184 26.4245 48.2184 26.4245C45.2325 32.4621 40.8641 36.1278 40.8641 36.1278L38.21 37.9607C34.0628 39.9553 32.2933 38.5537 32.2933 38.5537C30.8557 37.3677 31.4639 34.6723 31.4639 34.6723C31.851 32.8395 33.3992 30.198 33.3992 30.198L36.3852 25.9393C39.0947 23.0283 42.1912 21.5189 42.1912 21.5189C43.4648 20.9074 44.529 20.7095 45.3776 20.7137ZM116.51 21.1887C116.566 21.1881 116.621 21.1904 116.674 21.1955C116.674 21.1955 117.559 21.3033 117.946 21.7345C117.946 21.7345 118.333 22.2736 118.223 23.3518C118.223 23.3518 117.946 26.2089 114.684 28.9042C114.684 28.9042 110.979 31.977 106.666 31.8692L107.495 30.198C107.495 30.198 109.375 26.6401 112.14 23.8908C112.14 23.8908 114.786 21.2093 116.51 21.1887Z" fill="white"/>
<path d="M99.6982 15.1577C99.6982 15.1577 99.6982 15.8585 100.251 16.3975C100.251 16.3975 100.749 16.8827 101.523 16.8827C101.523 16.8827 102.242 16.8827 102.739 16.3975C102.739 16.3975 103.237 15.8585 103.237 15.1577L102.739 13.9178C102.739 13.9178 102.187 13.4326 101.523 13.4326C101.523 13.4326 100.749 13.4326 100.251 13.9178C100.251 13.9178 99.6982 14.403 99.6982 15.1577Z" fill="white"/>
</svg>
