<svg width="31" height="31" viewBox="0 0 31 31" fill="none" xmlns="http://www.w3.org/2000/svg">
<g clip-path="url(#clip0_355_12088)">
<path d="M13.5435 26.5825H3.43479C2.89537 26.5825 2.4565 26.1436 2.4565 25.6042V5.38682C2.4565 4.84741 2.89537 4.40854 3.43479 4.40854H11.1533L10.8622 4.69957C10.4801 5.08137 10.4801 5.70106 10.8622 6.08291C11.0533 6.27399 11.3036 6.36956 11.5538 6.36956C11.8041 6.36956 12.0545 6.27399 12.2455 6.08291L14.0827 4.24559C14.3471 4.0704 14.5217 3.77104 14.5217 3.43026C14.5217 3.08157 14.3378 2.77758 14.0633 2.60432L12.2455 0.786567C11.8634 0.404478 11.2443 0.404478 10.8622 0.786567C10.4801 1.16836 10.4801 1.78805 10.8622 2.16991L11.1443 2.45204H3.43479C1.81648 2.45204 0.5 3.76852 0.5 5.38682V25.6042C0.5 27.2225 1.81648 28.539 3.43479 28.539H13.5435C14.0836 28.539 14.5218 28.1011 14.5218 27.5607C14.5218 27.0203 14.0836 26.5825 13.5435 26.5825Z" fill="#878787"/>
<path d="M27.5654 2.45117H17.4567C16.9166 2.45117 16.4784 2.88904 16.4784 3.42945C16.4784 3.96986 16.9166 4.40773 17.4567 4.40773H27.5654C28.1048 4.40773 28.5437 4.8466 28.5437 5.38602V25.6034C28.5437 26.1428 28.1048 26.5817 27.5654 26.5817H19.7896L20.0717 26.2995C20.4538 25.9177 20.4538 25.298 20.0717 24.9162C19.6896 24.5341 19.0705 24.5341 18.6884 24.9162L16.7319 26.8727C16.3498 27.2545 16.3498 27.8742 16.7319 28.256L18.6884 30.2125C18.8795 30.4036 19.1298 30.4992 19.38 30.4992C19.6303 30.4992 19.8806 30.4036 20.0717 30.2125C20.4538 29.8307 20.4538 29.2111 20.0717 28.8292L19.7806 28.5381H27.5654C29.1837 28.5381 30.5002 27.2216 30.5002 25.6033V5.38596C30.5002 3.7676 29.1837 2.45117 27.5654 2.45117Z" fill="#878787"/>
<path d="M21.3695 8.97461H17.4565V13.2697C17.4565 13.8507 16.754 14.1418 16.3432 13.7309L15.5 12.8877L14.6567 13.7309C14.2459 14.1417 13.5434 13.8508 13.5434 13.2697V8.97461H9.63033C8.54975 8.97461 7.67383 9.85053 7.67383 10.9311V20.7137C7.67383 21.7943 8.54975 22.6702 9.63033 22.6702H21.3695C22.4501 22.6702 23.326 21.7943 23.326 20.7137V10.9311C23.326 9.85053 22.4501 8.97461 21.3695 8.97461Z" fill="#878787"/>
</g>
<defs>
<clipPath id="clip0_355_12088">
<rect width="30" height="30" fill="white" transform="translate(0.5 0.5)"/>
</clipPath>
</defs>
</svg>
