<svg width="20" height="19" viewBox="0 0 20 19" fill="none" xmlns="http://www.w3.org/2000/svg">
<path d="M11.6656 18.5C11.5587 18.4999 11.4525 18.482 11.351 18.4468L8.01147 17.2928C7.81286 17.2235 7.64034 17.0909 7.51842 16.914C7.3965 16.737 7.33138 16.5247 7.33231 16.3071V11.149C7.33139 11.1469 7.33012 11.145 7.32856 11.1434L0.30151 2.64356C0.145693 2.45505 0.0452384 2.22407 0.0120721 1.97804C-0.0210943 1.73201 0.0144209 1.48126 0.114401 1.25557C0.214381 1.02988 0.374627 0.838719 0.576113 0.704789C0.777598 0.570859 1.01186 0.499783 1.25109 0.5H18.7489C18.9881 0.499783 19.2224 0.570859 19.4239 0.704789C19.6254 0.838719 19.7856 1.02988 19.8856 1.25557C19.9856 1.48126 20.0211 1.73201 19.9879 1.97804C19.9548 2.22407 19.8543 2.45505 19.6985 2.64356L12.6694 11.1442C12.6679 11.146 12.6667 11.1479 12.6656 11.1499V17.4615C12.666 17.598 12.6404 17.7332 12.5903 17.8594C12.5402 17.9856 12.4665 18.1002 12.3736 18.1967C12.2806 18.2932 12.1703 18.3697 12.0488 18.4218C11.9273 18.4738 11.797 18.5004 11.6656 18.5Z" fill="white"/>
</svg>
