<svg width="145" height="40" viewBox="0 0 145 40" fill="none" xmlns="http://www.w3.org/2000/svg">
<g clip-path="url(#clip0_111_1744)">
<path d="M21.6191 20.5854H25.1473V20.8283H25.0213C24.5257 20.8283 24.2065 21.6407 24.2065 22.1097V28.7096C23.0472 29.1535 21.0395 29.3964 19.561 29.3964C13.6052 29.3964 10.791 25.0579 10.791 20.9958C10.791 16.9002 13.58 12.6455 19.687 12.6455C20.8463 12.6455 21.8375 12.8968 22.602 13.0643C23.022 13.1648 23.3412 13.2653 23.568 13.2653H23.7864V15.8784H23.5344C23.1396 13.8348 21.0395 13.5166 19.5778 13.5166C14.6132 13.5166 12.4375 17.3357 12.4375 20.7613C12.4375 24.5805 15.4532 28.5253 19.9979 28.5253C20.6111 28.5253 21.6275 28.4248 22.5432 27.9055V22.1181C22.5432 21.6491 22.2492 20.8367 21.7283 20.8367H21.6023V20.5854H21.6191Z" fill="white"/>
<path d="M43.1405 28.9107V29.162H39.6543V28.9107H39.7803C40.2759 28.9107 40.5699 28.0481 40.5699 27.5539V14.4296C40.5699 13.9606 40.2759 13.1482 39.7803 13.1482H39.6543V12.9053H43.9553C47.2399 12.9053 49.1216 14.2118 49.1216 16.6993C49.1216 19.1868 47.3659 20.418 45.2658 20.8117L47.0466 23.5169C47.9119 24.8235 48.8023 26.0547 49.6676 27.4115C50.138 28.0732 50.7764 28.9107 51.5241 28.9107V29.162H50.4656C49.1551 29.162 48.3655 28.4249 47.7943 27.5623C46.3074 25.393 44.8541 23.1317 43.3925 20.9624C43.0229 20.9373 42.6028 20.8871 42.2332 20.8117V27.5623C42.2332 28.0564 42.5272 28.9191 43.0229 28.9191H43.1405V28.9107ZM42.2248 13.7344V19.9909H42.3508C42.6196 20.016 43.1909 20.0411 44.0561 20.0411C45.417 20.0411 47.4163 19.2538 47.4163 16.7915C47.4163 14.304 45.4422 13.7344 42.5944 13.7344H42.2248Z" fill="white"/>
<path d="M74.2979 28.9105H74.4239C74.8187 28.9105 75.0119 28.7346 75.0119 28.3661C75.0119 28.2404 74.9867 28.0981 74.9363 27.9473L72.7102 21.9589H68.384L66.2335 27.8468C66.1831 27.9724 66.1579 28.0981 66.1579 28.2153C66.1579 28.6341 66.4267 28.9021 66.7039 28.9021H66.8299V29.1534H64.083V28.9021H64.209C64.629 28.9021 65.0743 28.3158 65.3431 27.6207L71.0049 12.6035L76.5408 27.4783C76.7592 28.1483 77.154 28.9105 77.8261 28.9105H77.9521V29.1617H74.2979V28.9105ZM68.636 21.1297H72.4414L70.5429 15.9788L68.636 21.1297Z" fill="white"/>
<path d="M97.1303 28.9103V29.1616H93.5938V28.9103H93.7198C94.2406 28.9103 94.5346 28.0979 94.5346 27.6037V14.4292C94.5346 13.9602 94.2658 13.1477 93.7198 13.1477H93.5938V12.8965H103.666V15.1914H103.422C103.422 14.4292 102.927 13.7592 101.843 13.7592H96.1895V19.9905H100.885C101.65 19.9905 102.221 19.4461 102.221 18.8347H102.473V21.9168H102.221C102.221 21.3222 101.675 20.828 100.885 20.828H96.1895V27.6037C96.1895 28.0979 96.4835 28.9103 97.0043 28.9103H97.1303Z" fill="white"/>
<path d="M122.936 28.9103V29.1616H119.399V28.9103H119.525C120.046 28.9103 120.34 28.0979 120.34 27.6037V14.4292C120.34 13.9602 120.071 13.1477 119.525 13.1477H119.399V12.8965H129.471V15.1914H129.228C129.228 14.4292 128.732 13.7592 127.649 13.7592H121.995V19.9905H126.691C127.455 19.9905 128.027 19.4461 128.027 18.8347H128.27V21.9168H128.027C128.027 21.3222 127.481 20.828 126.691 20.828H121.995V27.6037C121.995 28.0979 122.289 28.9103 122.81 28.9103H122.936Z" fill="white"/>
<path d="M71.9627 37.6375C71.6939 36.8837 70.9799 36.3477 70.1399 36.3477C69.2998 36.3477 68.5774 36.8837 68.317 37.6375H10.791V37.8552H68.2834C69.3166 37.8971 70.1399 38.743 70.1399 39.7732C70.1483 38.7347 70.9715 37.8971 71.9963 37.8552H129.489V37.6375H71.9627Z" fill="white"/>
</g>
<defs>
<clipPath id="clip0_111_1744">
<rect width="145" height="39" fill="white" transform="translate(0 0.5)"/>
</clipPath>
</defs>
</svg>
