<svg width="20" height="20" viewBox="0 0 20 20" fill="none" xmlns="http://www.w3.org/2000/svg">
<g clip-path="url(#clip0_297_10494)">
<path d="M5.99561 11.169C5.99561 11.7204 6.4453 12.1701 6.99666 12.1701C7.54803 12.1701 7.99772 11.7204 7.99772 11.169C7.99772 10.6177 7.54803 10.168 6.99666 10.168C6.4453 10.168 5.99561 10.6177 5.99561 11.169ZM7.66143 11.169C7.66534 11.3528 7.51675 11.5014 7.32905 11.5014H6.66428C6.48049 11.5014 6.3319 11.3528 6.3319 11.169C6.3319 10.9852 6.48049 10.8366 6.66428 10.8366H7.32905C7.51284 10.8366 7.66143 10.9852 7.66143 11.169Z" fill="white"/>
<path d="M3.32471 6.16406H1.70972L0.1221 15.373C0.0165192 15.9987 -0.0225847 16.6165 0.0126089 17.2187C0.0517127 17.8679 0.1221 18.3684 0.235501 18.7321L0.462304 18.5717C0.466214 18.5639 3.32471 15.9557 3.32471 6.49645V6.16406Z" fill="white"/>
<path d="M15.9318 6.82898V6.74295C15.9318 6.66083 15.9279 6.57871 15.9279 6.49659L15.9083 6.16421C15.4704 3.93138 13.8671 0.490234 10.3321 0.490234C6.79714 0.490234 5.19388 3.93138 4.75591 6.16421H3.99339V6.49659C3.99339 16.3273 1.00194 18.9903 0.872898 19.0959L0.552246 19.3266C0.677379 19.4478 0.822063 19.5104 0.99021 19.5104H19.0093C19.1892 19.5104 19.3417 19.4439 19.4707 19.3031L19.1266 19.0959C19.0015 18.9903 15.9983 16.3821 15.9318 6.82898ZM8.66239 11.1656C8.6663 12.0884 7.91551 12.8353 6.99657 12.8353C6.07763 12.8353 5.32683 12.0884 5.32683 11.1656C5.32683 10.3601 5.90166 9.68747 6.66027 9.53105V8.16242H6.39046C5.98769 8.16242 5.65921 7.83395 5.65921 7.43118V6.82507H6.32789V7.43118C6.32789 7.46637 6.35526 7.49374 6.39046 7.49374H7.60268C7.63787 7.49374 7.66525 7.46637 7.66525 7.43118V6.1603H6.8206C6.93791 5.70278 7.12561 5.13578 7.40716 4.5805C8.10712 3.19622 9.09254 2.49235 10.336 2.49235C11.5795 2.49235 12.565 3.19622 13.2649 4.5805C13.5465 5.13969 13.7303 5.70278 13.8515 6.1603H8.33001V7.43118C8.33001 7.83395 8.00154 8.16242 7.59877 8.16242H7.32895V9.53105C8.08757 9.68747 8.66239 10.3601 8.66239 11.1656Z" fill="white"/>
<path d="M19.8775 15.373L18.2898 6.16016H16.6357V6.49254C16.6357 15.635 19.3104 18.3449 19.5451 18.5678L19.7719 18.7047C19.8814 18.341 19.9518 17.8483 19.9869 17.2109C20.0221 16.6165 19.9869 15.9987 19.8775 15.373Z" fill="white"/>
</g>
<defs>
<clipPath id="clip0_297_10494">
<rect width="20" height="20" fill="white"/>
</clipPath>
</defs>
</svg>
