<svg width="30" height="30" viewBox="0 0 30 30" fill="none" xmlns="http://www.w3.org/2000/svg">
<mask id="mask0_110_1243" style="mask-type:luminance" maskUnits="userSpaceOnUse" x="1" y="1" width="28" height="28">
<path d="M21.25 3.75H8.75C7.42392 3.75 6.15215 4.27678 5.21447 5.21447C4.27678 6.15215 3.75 7.42392 3.75 8.75V21.25C3.75 22.5761 4.27678 23.8479 5.21447 24.7855C6.15215 25.7232 7.42392 26.25 8.75 26.25H21.25C22.5761 26.25 23.8479 25.7232 24.7855 24.7855C25.7232 23.8479 26.25 22.5761 26.25 21.25V8.75C26.25 7.42392 25.7232 6.15215 24.7855 5.21447C23.8479 4.27678 22.5761 3.75 21.25 3.75Z" fill="white" stroke="white" stroke-width="4" stroke-linejoin="round"/>
<path d="M15 20C16.3261 20 17.5979 19.4732 18.5355 18.5355C19.4732 17.5979 20 16.3261 20 15C20 13.6739 19.4732 12.4021 18.5355 11.4645C17.5979 10.5268 16.3261 10 15 10C13.6739 10 12.4021 10.5268 11.4645 11.4645C10.5268 12.4021 10 13.6739 10 15C10 16.3261 10.5268 17.5979 11.4645 18.5355C12.4021 19.4732 13.6739 20 15 20Z" fill="black" stroke="black" stroke-width="4" stroke-linejoin="round"/>
<path d="M21.875 9.375C22.2065 9.375 22.5245 9.2433 22.7589 9.00888C22.9933 8.77446 23.125 8.45652 23.125 8.125C23.125 7.79348 22.9933 7.47554 22.7589 7.24112C22.5245 7.0067 22.2065 6.875 21.875 6.875C21.5435 6.875 21.2255 7.0067 20.9911 7.24112C20.7567 7.47554 20.625 7.79348 20.625 8.125C20.625 8.45652 20.7567 8.77446 20.9911 9.00888C21.2255 9.2433 21.5435 9.375 21.875 9.375Z" fill="black"/>
</mask>
<g mask="url(#mask0_110_1243)">
<path d="M0 0H30V30H0V0Z" fill="white"/>
</g>
</svg>
