<svg width="70" height="89" viewBox="0 0 70 89" fill="none" xmlns="http://www.w3.org/2000/svg">
<path d="M22.1197 9.9606V10.717H21.3529C20.9597 10.717 20.6156 10.8624 20.3207 11.1533C20.0257 11.4442 19.8684 11.7836 19.8488 12.1715V26.8914C19.8488 27.3375 19.8586 27.7932 19.8783 28.2587C19.9176 28.7047 19.9569 29.112 19.9962 29.4805C20.0356 29.9071 20.0847 30.3241 20.1437 30.7314H19.4949L4.12902 14.5569V28.0841C4.16834 28.4914 4.32564 28.8405 4.60091 29.1314C4.89584 29.4223 5.24975 29.5678 5.66265 29.5678H6.42947V30.3241H0V29.5678H0.766818C1.17972 29.5678 1.53364 29.4223 1.82857 29.1314C2.1235 28.8405 2.28079 28.4817 2.30045 28.055V13.2769C2.30045 12.7921 2.28079 12.3266 2.24147 11.8806C2.22181 11.4151 2.19231 11.0079 2.15299 10.6588L2.00552 9.49515H2.68386L18.0497 25.6696V12.1715C18.0104 11.7642 17.8433 11.4151 17.5483 11.1242C17.2731 10.8333 16.9191 10.6879 16.4866 10.6879H15.7198V9.93151L22.1197 9.9606Z" fill="white"/>
<path d="M44.8339 9.90242V10.6588H44.126C43.7918 10.6588 43.5067 10.7654 43.2707 10.9788C43.0348 11.1921 42.8972 11.4636 42.8578 11.7933V23.0223C42.8578 24.1666 42.6612 25.2138 42.268 26.1641C41.8944 27.1144 41.3537 27.929 40.6459 28.6078C39.938 29.2671 39.0926 29.7811 38.1095 30.1496C37.1264 30.518 36.0351 30.7023 34.8358 30.7023C33.597 30.7023 32.4763 30.518 31.4736 30.1496C30.4708 29.7811 29.6057 29.2671 28.8782 28.6078C28.1507 27.929 27.5903 27.1241 27.1971 26.1932C26.8038 25.2623 26.6072 24.2248 26.6072 23.0805V11.8515C26.5875 11.5218 26.4499 11.2406 26.1943 11.0079C25.9584 10.7751 25.6733 10.6588 25.339 10.6588H24.6312V9.90242H30.9427V10.6588H30.2643C29.9301 10.6588 29.6352 10.7654 29.3795 10.9788C29.1436 11.1921 29.0158 11.4636 28.9961 11.7933V22.6442C28.9961 23.6526 29.1338 24.5641 29.409 25.3787C29.704 26.1932 30.107 26.8914 30.6183 27.4732C31.1295 28.055 31.739 28.5108 32.4468 28.8405C33.1743 29.1508 33.9805 29.3059 34.8652 29.3059C35.7894 29.3059 36.6348 29.1605 37.4016 28.8696C38.1685 28.5593 38.8173 28.1326 39.3482 27.5896C39.8987 27.0272 40.3214 26.3678 40.6164 25.6114C40.9113 24.8357 41.0588 23.9726 41.0588 23.0223V11.8224C41.0195 11.4927 40.8818 11.2212 40.6459 11.0079C40.4099 10.7945 40.1248 10.6879 39.7906 10.6879H39.0827V9.93151L44.8339 9.90242Z" fill="white"/>
<path d="M67.4046 27.9678C67.5029 28.4526 67.729 28.8405 68.083 29.1314C68.4369 29.4029 68.8399 29.5387 69.2922 29.5387H70V30.295H63.2461V29.5678H63.9539C64.1899 29.5678 64.3963 29.4805 64.5733 29.3059C64.7502 29.112 64.8387 28.8987 64.8387 28.6659V28.6078L63.6295 15.1969L57.9374 27.6478C57.7801 27.9774 57.6424 28.3168 57.5245 28.6659C57.4065 28.9762 57.2885 29.3156 57.1706 29.6841C57.0722 30.0332 57.0034 30.3726 56.9641 30.7023H56.3447L49.2664 15.6042L48.0867 28.6078V28.6659C48.0867 28.8987 48.1752 29.112 48.3521 29.3059C48.5291 29.4805 48.7356 29.5678 48.9715 29.5678H49.6498V30.295H43.5743V29.5387H44.2821C44.7343 29.5387 45.1374 29.4029 45.4913 29.1314C45.8452 28.8405 46.0714 28.4526 46.1697 27.9678L48.3521 9.52424H48.9715L56.8461 26.3387L64.5733 9.52424H65.1926L67.4046 27.9678Z" fill="white"/>
<path d="M13.3308 59.4439H0.943776V58.6876H1.56313C2.01535 58.6876 2.38893 58.5421 2.68386 58.2512C2.97879 57.9409 3.14592 57.5627 3.18524 57.1167V41.2331C3.14592 40.8453 2.96896 40.5156 2.65437 40.244C2.35944 39.9725 2.00552 39.8368 1.59262 39.8368H0.973269V39.0804H9.64421C9.93914 39.0804 10.2636 39.061 10.6175 39.0222C10.9911 38.9834 11.345 38.935 11.6792 38.8768C12.0331 38.8186 12.3576 38.7507 12.6525 38.6732C12.9474 38.5956 13.1735 38.518 13.3308 38.4404V42.6295H12.564V41.8731C12.564 41.4853 12.4264 41.1556 12.1511 40.884C11.8955 40.6125 11.5711 40.4574 11.1778 40.4186H5.57418V48.7094H10.1751C10.5093 48.6901 10.7846 48.5737 11.0009 48.3604C11.2368 48.1276 11.3548 47.8464 11.3548 47.5167V46.8767H12.1216V51.8222H11.3548V51.1531C11.3548 50.8428 11.2368 50.5809 11.0009 50.3676C10.7846 50.1349 10.529 50.0088 10.2341 49.9894H5.60367V58.0476H9.46725C10.1947 58.0476 10.8141 57.9603 11.3253 57.7858C11.8562 57.5918 12.3084 57.33 12.682 57.0003C13.0752 56.6706 13.4095 56.2827 13.6847 55.8367C13.96 55.3712 14.2058 54.867 14.4221 54.324H15.2184L13.3308 59.4439Z" fill="white"/>
<path d="M25.2209 39.1095C27.0494 39.1095 28.4848 39.6041 29.5269 40.5931C30.5689 41.5822 31.09 42.9495 31.09 44.6949C31.09 45.3543 30.972 46.004 30.7361 46.644C30.5198 47.2646 30.215 47.8367 29.8218 48.3604C29.4286 48.8646 28.9567 49.2913 28.4061 49.6404C27.8753 49.9894 27.2952 50.2125 26.666 50.3094C26.9413 50.5228 27.2067 50.7846 27.4624 51.0949C27.7376 51.4052 27.9834 51.6961 28.1997 51.9676C28.6519 52.627 29.1041 53.2573 29.5564 53.8585C29.9299 54.3627 30.3232 54.8767 30.7361 55.4003C31.149 55.9239 31.4931 56.3312 31.7683 56.6221C32.3385 57.2427 32.9087 57.747 33.4789 58.1348C34.0688 58.5033 34.8258 58.6876 35.7499 58.6876V59.4439H33.9213C33.2331 59.4439 32.6138 59.3664 32.0633 59.2112C31.5324 59.0367 31.0507 58.8233 30.6181 58.5712C30.2052 58.3191 29.8415 58.0476 29.5269 57.7567C29.2319 57.4464 28.9665 57.1458 28.7305 56.8549C28.6912 56.7967 28.6027 56.6803 28.4651 56.5058C28.3275 56.3118 28.1604 56.0791 27.9637 55.8076C27.7868 55.5361 27.5803 55.2452 27.3444 54.9349C27.1281 54.6052 26.902 54.2755 26.666 53.9458C26.2335 53.364 25.7911 52.7628 25.3389 52.1422C24.8866 51.5022 24.572 51.0755 24.3951 50.8622C24.2378 50.6294 24.0608 50.4258 23.8642 50.2513C23.6873 50.0767 23.4808 49.941 23.2449 49.844C23.0286 49.7276 22.5272 49.6694 21.7407 49.6694V57.1167C21.78 57.5433 21.9472 57.9118 22.2421 58.2221C22.537 58.513 22.9106 58.6585 23.3628 58.6585H23.9822V59.4148H17.1988V58.6585H17.8181C18.2704 58.6585 18.6439 58.513 18.9389 58.2221C19.2338 57.9118 19.4009 57.5433 19.4403 57.1167V41.3495C19.4009 40.9228 19.2338 40.5543 18.9389 40.244C18.6439 39.9337 18.2704 39.7786 17.8181 39.7786H17.1988V39.0222L25.2209 39.1095ZM23.3923 48.9422C23.5693 48.9422 23.7659 48.9325 23.9822 48.9131C24.3361 48.9131 24.7195 48.884 25.1324 48.8258C25.5453 48.7482 25.9484 48.6125 26.3416 48.4185C26.7545 48.2246 27.1281 47.9531 27.4624 47.604C27.7966 47.2355 28.062 46.7507 28.2587 46.1495C28.357 45.8004 28.4061 45.3446 28.4061 44.7822V44.5204C28.3668 43.2986 28.0522 42.3289 27.4624 41.6113C26.8922 40.8937 26.1057 40.5059 25.1029 40.4477C24.7687 40.4283 24.4344 40.4186 24.1002 40.4186C23.7856 40.3992 23.4808 40.3895 23.1859 40.3895C22.9106 40.3895 22.6648 40.3992 22.4485 40.4186C22.2323 40.4186 22.0455 40.4186 21.8882 40.4186H21.7407V48.9422H23.3923Z" fill="white"/>
<path d="M47.0409 38.615C48.6138 38.615 50.0491 38.8671 51.3468 39.3713C52.6445 39.8756 53.7554 40.5931 54.6795 41.524C55.6233 42.4549 56.3508 43.5701 56.862 44.8695C57.3929 46.1689 57.6583 47.6137 57.6583 49.204C57.6583 50.7943 57.3929 52.2391 56.862 53.5385C56.3508 54.8379 55.6233 55.953 54.6795 56.8839C53.7554 57.8148 52.6445 58.5324 51.3468 59.0367C50.0491 59.5409 48.6138 59.793 47.0409 59.793C45.4679 59.793 44.0326 59.5409 42.7349 59.0367C41.4372 58.5324 40.3165 57.8148 39.3727 56.8839C38.4486 55.953 37.7211 54.8379 37.1902 53.5385C36.679 52.2391 36.4234 50.7943 36.4234 49.204C36.4234 47.6137 36.679 46.1689 37.1902 44.8695C37.7211 43.5701 38.4486 42.4549 39.3727 41.524C40.3165 40.5931 41.4372 39.8756 42.7349 39.3713C44.0326 38.8671 45.4679 38.615 47.0409 38.615ZM47.0409 58.4548C48.2402 58.4548 49.3216 58.2318 50.2851 57.7858C51.2682 57.3397 52.1038 56.7191 52.792 55.9239C53.4802 55.1094 54.011 54.1397 54.3846 53.0149C54.7779 51.8706 54.9745 50.6003 54.9745 49.204C54.9745 47.8076 54.7779 46.547 54.3846 45.4222C54.011 44.278 53.4802 43.3083 52.792 42.5131C52.1038 41.6986 51.2682 41.0683 50.2851 40.6222C49.3216 40.1762 48.2402 39.9531 47.0409 39.9531C45.8611 39.9531 44.7797 40.1762 43.7966 40.6222C42.8332 41.0683 41.9976 41.6986 41.2897 42.5131C40.6016 43.3083 40.0707 44.278 39.6971 45.4222C39.3235 46.547 39.1367 47.8076 39.1367 49.204C39.1367 50.6003 39.3235 51.8706 39.6971 53.0149C40.0707 54.1397 40.6016 55.1094 41.2897 55.9239C41.9976 56.7191 42.8332 57.3397 43.7966 57.7858C44.7797 58.2318 45.8611 58.4548 47.0409 58.4548Z" fill="white"/>
<path d="M3.69188 79.1092C4.36039 78.2946 5.1272 77.674 5.99233 77.2474C6.85746 76.8207 7.72259 76.6074 8.58772 76.6074C9.19724 76.6074 9.7871 76.7237 10.3573 76.9564C10.9472 77.1892 11.4682 77.5383 11.9204 78.0037C12.3727 78.4692 12.7462 79.051 13.0412 79.7491C13.3557 80.4473 13.5524 81.2619 13.631 82.1928C13.631 82.2704 13.631 82.3479 13.631 82.4255C13.6507 82.5031 13.6605 82.5807 13.6605 82.6582C13.6605 83.4728 13.513 84.2582 13.2181 85.0146C12.9428 85.7709 12.5299 86.44 11.9794 87.0218C11.4289 87.6036 10.7604 88.0788 9.97389 88.4473C9.20707 88.7964 8.33211 88.9806 7.34901 89H7.23104C6.24794 89 5.34349 88.8158 4.51768 88.4473C3.69188 88.0594 2.97422 87.5164 2.3647 86.8182C1.75517 86.1006 1.28329 85.2376 0.949031 84.2291C0.614778 83.2012 0.447651 82.0376 0.447651 80.7382V80.5928C0.467313 79.0995 0.683594 77.5964 1.0965 76.0837C1.5094 74.571 2.12875 73.194 2.95455 71.9528C3.78036 70.6922 4.82244 69.6353 6.08081 68.782C7.33918 67.9092 8.82366 67.3662 10.5343 67.1529L10.8587 67.7638C9.46267 68.2098 8.27312 68.8595 7.29002 69.7129C6.32659 70.5468 5.53028 71.5262 4.90109 72.651C4.29157 73.7759 3.83934 75.0171 3.54441 76.3746C3.26915 77.7128 3.13151 79.1092 3.13151 80.5637C3.13151 81.611 3.21999 82.571 3.39695 83.4437C3.57391 84.297 3.82951 85.034 4.16377 85.6546C4.51768 86.2752 4.96008 86.76 5.49095 87.1091C6.02183 87.4582 6.64118 87.6327 7.34901 87.6327C7.97819 87.6327 8.5189 87.497 8.97112 87.2255C9.42335 86.9539 9.79693 86.5952 10.0919 86.1491C10.3868 85.703 10.6031 85.1891 10.7407 84.6073C10.898 84.0061 10.9766 83.3952 10.9766 82.7746C10.9766 82.7358 10.9668 82.7067 10.9472 82.6873C10.9472 82.6679 10.9472 82.6388 10.9472 82.6C10.9078 81.2619 10.5834 80.1758 9.97389 79.3419C9.36436 78.5079 8.47958 78.091 7.31952 78.091C6.74932 78.091 6.17912 78.2267 5.60892 78.4983C5.03873 78.7698 4.54718 79.177 4.13427 79.7201L3.69188 79.1092Z" fill="white"/>
<path d="M20.1953 79.1092C20.8638 78.2946 21.6306 77.674 22.4957 77.2474C23.3609 76.8207 24.226 76.6074 25.0911 76.6074C25.7006 76.6074 26.2905 76.7237 26.8607 76.9564C27.4506 77.1892 27.9716 77.5383 28.4238 78.0037C28.8761 78.4692 29.2496 79.051 29.5446 79.7491C29.8592 80.4473 30.0558 81.2619 30.1344 82.1928C30.1344 82.2704 30.1344 82.3479 30.1344 82.4255C30.1541 82.5031 30.1639 82.5807 30.1639 82.6582C30.1639 83.4728 30.0164 84.2582 29.7215 85.0146C29.4462 85.7709 29.0333 86.44 28.4828 87.0218C27.9323 87.6036 27.2638 88.0788 26.4773 88.4473C25.7105 88.7964 24.8355 88.9806 23.8524 89H23.7344C22.7513 89 21.8469 88.8158 21.0211 88.4473C20.1953 88.0594 19.4776 87.5164 18.8681 86.8182C18.2586 86.1006 17.7867 85.2376 17.4524 84.2291C17.1182 83.2012 16.9511 82.0376 16.9511 80.7382V80.5928C16.9707 79.0995 17.187 77.5964 17.5999 76.0837C18.0128 74.571 18.6322 73.194 19.458 71.9528C20.2838 70.6922 21.3258 69.6353 22.5842 68.782C23.8426 67.9092 25.3271 67.3662 27.0377 67.1529L27.3621 67.7638C25.9661 68.2098 24.7765 68.8595 23.7934 69.7129C22.83 70.5468 22.0337 71.5262 21.4045 72.651C20.795 73.7759 20.3427 75.0171 20.0478 76.3746C19.7725 77.7128 19.6349 79.1092 19.6349 80.5637C19.6349 81.611 19.7234 82.571 19.9004 83.4437C20.0773 84.297 20.3329 85.034 20.6672 85.6546C21.0211 86.2752 21.4635 86.76 21.9944 87.1091C22.5252 87.4582 23.1446 87.6327 23.8524 87.6327C24.4816 87.6327 25.0223 87.497 25.4745 87.2255C25.9268 86.9539 26.3003 86.5952 26.5953 86.1491C26.8902 85.703 27.1065 85.1891 27.2441 84.6073C27.4014 84.0061 27.4801 83.3952 27.4801 82.7746C27.4801 82.7358 27.4702 82.7067 27.4506 82.6873C27.4506 82.6679 27.4506 82.6388 27.4506 82.6C27.4112 81.2619 27.0868 80.1758 26.4773 79.3419C25.8678 78.5079 24.983 78.091 23.8229 78.091C23.2527 78.091 22.6825 78.2267 22.1123 78.4983C21.5421 78.7698 21.0506 79.177 20.6377 79.7201L20.1953 79.1092Z" fill="white"/>
<path d="M67.797 5.83673C68.5016 3.52559 69.8076 7.32295e-06 69.8076 7.32295e-06C69.8076 7.32295e-06 67.9772 3.35731 66.7539 5.44571C65.5306 7.53411 63.5428 10.6954 63.5428 10.6954L63.9539 10.8719L46.3253 49.2304C46.2701 49.3493 46.2415 49.4784 46.2415 49.6092V68.6286L45.489 73.0321L35.5571 74.6835L45.489 76.3348L47.1631 86.1312L48.8373 76.3348L58.7692 74.6835L48.8373 73.0321L48.0848 68.6289V49.8075L65.6443 11.5978L66.1991 11.8361C66.1991 11.8361 67.0924 8.14788 67.797 5.83673Z" fill="white"/>
</svg>
