<svg width="25" height="24" viewBox="0 0 25 24" fill="none" xmlns="http://www.w3.org/2000/svg">
<path d="M5.49962 9.86001C7.41948 14.0408 10.8308 17.3544 15.0656 19.152L15.7456 19.455C16.4987 19.7903 17.3459 19.8491 18.138 19.621C18.9301 19.3929 19.6163 18.8925 20.0756 18.208L20.9646 16.884C21.1037 16.6764 21.1601 16.4242 21.1225 16.1771C21.0849 15.93 20.9562 15.7059 20.7616 15.549L17.7496 13.119C17.6447 13.0344 17.5238 12.9719 17.3942 12.9353C17.2645 12.8986 17.1288 12.8885 16.9951 12.9056C16.8615 12.9227 16.7327 12.9666 16.6164 13.0347C16.5002 13.1028 16.3989 13.1938 16.3186 13.302L15.3866 14.559C12.9942 13.3774 11.0577 11.4406 9.87662 9.04801L11.1326 8.11601C11.2409 8.03577 11.3318 7.93448 11.3999 7.81823C11.468 7.70198 11.512 7.57316 11.529 7.4395C11.5461 7.30585 11.536 7.17012 11.4994 7.04046C11.4627 6.91081 11.4002 6.7899 11.3156 6.68501L8.88562 3.67301C8.72872 3.47846 8.50466 3.34972 8.25756 3.31215C8.01047 3.27458 7.75826 3.33089 7.55062 3.47001L6.21762 4.36401C5.52902 4.82579 5.02671 5.51702 4.80018 6.31457C4.57364 7.11213 4.63759 7.9642 4.98062 8.71901L5.49962 9.86001Z" fill="white"/>
</svg>
