<svg width="25" height="26" viewBox="0 0 25 26" fill="none" xmlns="http://www.w3.org/2000/svg">
<path d="M10.0156 3.00736C8.0265 3.00736 6.11885 3.79754 4.71232 5.20406C3.3058 6.61058 2.51562 8.51824 2.51562 10.5074C2.51562 12.4965 3.3058 14.4041 4.71232 15.8107C6.11885 17.2172 8.0265 18.0074 10.0156 18.0074C12.0047 18.0074 13.9124 17.2172 15.3189 15.8107C16.7254 14.4041 17.5156 12.4965 17.5156 10.5074C17.5156 8.51824 16.7254 6.61058 15.3189 5.20406C13.9124 3.79754 12.0047 3.00736 10.0156 3.00736ZM0.0156251 10.5074C0.0158529 8.91593 0.395898 7.34754 1.12417 5.93254C1.85245 4.51753 2.90793 3.29677 4.20288 2.37171C5.49784 1.44666 6.99487 0.844026 8.56957 0.613897C10.1443 0.383768 11.7512 0.53279 13.2567 1.04858C14.7622 1.56437 16.1229 2.43202 17.2256 3.57944C18.3284 4.72686 19.1414 6.1209 19.597 7.64571C20.0526 9.17051 20.1378 10.782 19.8453 12.3464C19.5529 13.9107 18.8913 15.3826 17.9156 16.6399L24.6494 23.3736C24.8771 23.6094 25.0031 23.9251 25.0002 24.2529C24.9974 24.5806 24.8659 24.8941 24.6341 25.1259C24.4024 25.3576 24.0889 25.4891 23.7611 25.492C23.4334 25.4948 23.1176 25.3688 22.8819 25.1411L16.1481 18.4074C14.6699 19.555 12.8994 20.2648 11.0378 20.4561C9.17626 20.6474 7.29836 20.3125 5.61768 19.4895C3.937 18.6664 2.52099 17.3883 1.53066 15.8005C0.540324 14.2126 0.0154171 12.3787 0.0156251 10.5074Z" fill="white"/>
</svg>
